<svg xmlns="http://www.w3.org/2000/svg" width="784" height="724" viewBox="0 0 784 724" fill="none"><g clip-path="url(#clip0_1521_740)"><path d="M741.81 64.3862L54.9205 433.722L55.6342 435.049L742.524 65.7136L741.81 64.3862Z" fill="#D9F3EC" fill-opacity="0.37"></path><path d="M795.239 95.5586L108.115 464.348L108.828 465.676L795.951 96.8863L795.239 95.5586Z" fill="#D9F3EC" fill-opacity="0.37"></path><path d="M521.365 63.463L71.0796 305.268L71.7925 306.596L522.078 64.7906L521.365 63.463Z" fill="#D9F3EC" fill-opacity="0.37"></path><path d="M693.123 30.8696L5.99976 399.659L6.71239 400.987L693.836 32.1974L693.123 30.8696Z" fill="#D9F3EC" fill-opacity="0.37"></path><path d="M848.44 126.094L161.629 495.508L162.343 496.835L849.154 127.422L848.44 126.094Z" fill="#D9F3EC" fill-opacity="0.37"></path><path d="M901.563 156.877L215.063 526.837L215.778 528.163L902.277 158.204L901.563 156.877Z" fill="#D9F3EC" fill-opacity="0.37"></path><path d="M955.108 188.016L268.296 557.508L269.01 558.835L955.822 189.343L955.108 188.016Z" fill="#D9F3EC" fill-opacity="0.37"></path><path d="M1008.58 219.303L321.534 588.249L322.247 589.576L1009.29 220.631L1008.58 219.303Z" fill="#D9F3EC" fill-opacity="0.37"></path><path d="M1061.82 249.998L375.007 619.412L375.72 620.739L1062.53 251.326L1061.82 249.998Z" fill="#D9F3EC" fill-opacity="0.37"></path><path d="M1114.95 280.464L428.682 650.891L429.398 652.217L1115.66 281.79L1114.95 280.464Z" fill="#D9F3EC" fill-opacity="0.37"></path><path d="M1168.61 311.786L481.8 681.278L482.514 682.605L1169.33 313.113L1168.61 311.786Z" fill="#D9F3EC" fill-opacity="0.37"></path><path d="M1222.02 343.272L534.82 711.906L535.532 713.234L1222.73 344.6L1222.02 343.272Z" fill="#D9F3EC" fill-opacity="0.37"></path><path d="M1238.57 393.75L625.203 723.128L625.916 724.456L1239.28 395.078L1238.57 393.75Z" fill="#D9F3EC" fill-opacity="0.37"></path><path d="M548.913 46.7795L548.199 48.1067L1235.01 417.442L1235.72 416.115L548.913 46.7795Z" fill="#D9F3EC" fill-opacity="0.37"></path><path d="M494.997 76.5689L494.283 77.896L1181.09 447.232L1181.81 445.905L494.997 76.5689Z" fill="#D9F3EC" fill-opacity="0.37"></path><path d="M597.75 12.9997L597.036 14.3269L1227 353.093L1227.71 351.766L597.75 12.9997Z" fill="#D9F3EC" fill-opacity="0.37"></path><path d="M442.264 108.607L441.55 109.934L1128.36 479.27L1129.08 477.943L442.264 108.607Z" fill="#D9F3EC" fill-opacity="0.37"></path><path d="M388.853 139.547L388.14 140.874L1074.95 510.209L1075.66 508.882L388.853 139.547Z" fill="#D9F3EC" fill-opacity="0.37"></path><path d="M319.127 156.967L318.407 158.291L1021.66 541.102L1022.38 539.779L319.127 156.967Z" fill="#D9F3EC" fill-opacity="0.37"></path><path d="M265.832 187.968L265.112 189.291L968.361 572.103L969.081 570.779L265.832 187.968Z" fill="#D9F3EC" fill-opacity="0.37"></path><path d="M212.428 218.909L211.707 220.233L914.956 603.044L915.677 601.721L212.428 218.909Z" fill="#D9F3EC" fill-opacity="0.37"></path><path d="M159.082 249.739L158.362 251.062L861.611 633.874L862.331 632.55L159.082 249.739Z" fill="#D9F3EC" fill-opacity="0.37"></path><path d="M105.789 280.74L105.068 282.063L808.317 664.875L809.038 663.551L105.789 280.74Z" fill="#D9F3EC" fill-opacity="0.37"></path><path d="M68.7836 325.247L68.0699 326.574L754.881 695.909L755.595 694.582L68.7836 325.247Z" fill="#D9F3EC" fill-opacity="0.37"></path><path d="M52.3143 376.052L51.6006 377.379L664.754 707.105L665.468 705.778L52.3143 376.052Z" fill="#D9F3EC" fill-opacity="0.37"></path><path d="M59.4016 439.524L58.6879 440.851L550.737 705.452L551.451 704.125L59.4016 439.524Z" fill="#D9F3EC" fill-opacity="0.37"></path><path fill-rule="evenodd" clip-rule="evenodd" d="M442.902 264.501L361.365 312.661L528.018 409.442L611.518 362.091L442.902 264.501Z" fill="black" stroke="black" stroke-width="0.8525" stroke-miterlimit="10" stroke-linecap="round" stroke-linejoin="round"></path><path fill-rule="evenodd" clip-rule="evenodd" d="M527.209 442.703L527.902 409.442L611.287 362.091L611.402 392.696L527.209 442.703Z" fill="#FFC702" stroke="black" stroke-width="0.8525" stroke-miterlimit="10" stroke-linecap="round" stroke-linejoin="round"></path><path fill-rule="evenodd" clip-rule="evenodd" d="M361.365 312.776L360.325 344.767L527.209 442.703L528.018 409.442L361.365 312.776Z" fill="#ABD1C7" stroke="black" stroke-width="0.8525" stroke-miterlimit="10" stroke-linecap="round" stroke-linejoin="round"></path><path fill-rule="evenodd" clip-rule="evenodd" d="M442.576 200.696L361.04 248.855L527.693 345.636L611.193 298.285L442.576 200.696Z" fill="black" stroke="black" stroke-width="0.8525" stroke-miterlimit="10" stroke-linecap="round" stroke-linejoin="round"></path><path fill-rule="evenodd" clip-rule="evenodd" d="M526.884 378.898L527.577 345.636L610.961 298.285L611.077 328.89L526.884 378.898Z" fill="#FFC702" stroke="black" stroke-width="0.8525" stroke-miterlimit="10" stroke-linecap="round" stroke-linejoin="round"></path><path fill-rule="evenodd" clip-rule="evenodd" d="M361.039 248.855L360 280.961L526.884 378.897L527.692 345.636L361.039 248.855Z" fill="#ABD1C7" stroke="black" stroke-width="0.8525" stroke-miterlimit="10" stroke-linecap="round" stroke-linejoin="round"></path><path fill-rule="evenodd" clip-rule="evenodd" d="M442.742 134L361.205 182.275L527.743 279.056L611.243 231.705L442.742 134Z" fill="#0B132B" stroke="black" stroke-width="0.8525" stroke-miterlimit="10" stroke-linecap="round" stroke-linejoin="round"></path><path fill-rule="evenodd" clip-rule="evenodd" d="M527.049 312.202L527.742 278.941L611.242 231.705L611.358 262.31L527.049 312.202Z" fill="#FFC702" stroke="black" stroke-width="0.8525" stroke-miterlimit="10" stroke-linecap="round" stroke-linejoin="round"></path><path fill-rule="evenodd" clip-rule="evenodd" d="M361.205 182.275L360.05 214.266L526.934 312.202L527.743 278.941L361.205 182.275Z" fill="#ABD1C7" stroke="black" stroke-width="0.8525" stroke-miterlimit="10" stroke-linecap="round" stroke-linejoin="round"></path><path d="M482.418 252.798V386.55L303.502 487.848H303.426V478.013L367.866 442.23L368.018 406.976L368.473 304.695L482.115 252.647C482.342 252.571 482.418 252.647 482.418 252.798Z" fill="#0B132B"></path><path d="M303.577 488.68L304.032 488.453L483.252 387.004V252.798C483.252 252.496 483.101 252.193 482.797 252.042C482.57 251.89 482.191 251.89 481.963 251.966L367.866 304.241V304.695L367.411 406.976L367.26 441.776L302.819 477.559V488.302L303.577 488.68ZM481.736 386.096L304.336 486.562V478.391L368.776 442.608L368.928 406.976L369.382 305.225L481.736 253.782V386.096Z" fill="#0D0D0D"></path><path d="M482.418 252.42L405.848 208.92L368.169 230.481V230.557L444.057 274.51L482.342 252.571C482.494 252.496 482.494 252.42 482.418 252.42Z" fill="#FFFFFE"></path><path d="M444.209 275.342L483.252 252.95V252.42C483.252 252.117 483.101 251.89 482.873 251.739L405.924 208.088L367.487 230.027V230.935L367.866 231.162L444.209 275.342ZM481.054 252.496L444.209 273.602L369.761 230.557L405.924 209.828L481.054 252.496Z" fill="#0D0D0D"></path><path d="M444.209 274.51L444.588 318.691C444.588 318.766 444.512 318.766 444.512 318.766L368.169 274.813V230.632C368.169 230.557 368.245 230.557 368.245 230.557L444.209 274.51Z" fill="#ABD1C6"></path><path d="M444.512 319.675L444.967 319.448C445.194 319.296 445.346 318.994 445.346 318.767L444.891 274.057L444.512 273.83L368.245 229.725L367.79 229.952C367.563 230.103 367.335 230.406 367.335 230.708V275.343L367.714 275.57L444.512 319.675ZM443.451 274.889L443.83 317.481L368.927 274.359V231.843L443.451 274.889Z" fill="#0D0D0D"></path><path d="M444.436 318.767L368.397 274.964L330.339 296.903V296.979L406.227 340.933L444.436 318.994C444.512 318.918 444.512 318.842 444.436 318.767Z" fill="#FFFFFE"></path><path d="M406.227 341.765L444.815 319.599C445.118 319.447 445.27 319.145 445.27 318.842C445.27 318.54 445.118 318.237 444.815 318.086L368.397 274.056L368.018 274.283L329.581 296.449V297.357L329.96 297.584L406.227 341.765ZM443.072 318.842L406.227 339.949L331.779 296.903L368.397 275.796L443.072 318.842Z" fill="#0D0D0D"></path><path d="M406.227 340.856L406.682 384.961C406.682 385.037 406.53 385.113 406.454 385.113L330.263 341.235V297.054C330.263 296.979 330.339 296.979 330.339 296.979L406.227 340.856Z" fill="#ABD1C6"></path><path d="M406.53 385.869C406.682 385.869 406.833 385.794 406.985 385.718C407.288 385.567 407.44 385.264 407.44 384.961L406.985 340.403L406.606 340.176L330.339 296.071L329.884 296.298C329.657 296.449 329.505 296.752 329.505 296.979V341.613L329.884 341.84L406.075 385.718C406.227 385.794 406.379 385.869 406.53 385.869ZM405.469 341.31L405.848 383.902L330.946 340.781V298.265L405.469 341.31Z" fill="#0D0D0D"></path><path d="M406.379 384.886L330.339 341.083L292.282 363.022V363.098L368.169 407.052L406.379 385.113C406.455 385.037 406.455 384.886 406.379 384.886Z" fill="#FFFFFE"></path><path d="M368.169 407.809L406.758 385.719C407.061 385.567 407.213 385.265 407.213 384.962C407.213 384.659 407.061 384.357 406.758 384.206L330.339 340.176L329.96 340.403L291.447 362.569V363.477L291.826 363.704L368.169 407.809ZM405.014 384.962L368.169 406.069L293.722 363.023L330.339 341.916L405.014 384.962Z" fill="#0D0D0D"></path><path d="M368.169 406.976C368.169 406.976 368.472 441.852 368.397 441.776L292.205 397.898V363.098C292.205 363.023 292.281 363.023 292.281 363.023L368.169 406.976Z" fill="#ABD1C6"></path><path d="M368.397 442.532C368.548 442.532 368.7 442.457 368.852 442.381C369.155 442.23 369.307 441.927 369.307 441.625L368.852 406.522L368.473 406.295L292.206 362.19L291.751 362.417C291.523 362.569 291.372 362.871 291.372 363.098V398.276L291.751 398.503L367.942 442.381C368.094 442.532 368.245 442.532 368.397 442.532ZM367.411 407.354L367.79 440.566L292.888 397.444V364.309L367.411 407.354Z" fill="#0D0D0D"></path><path d="M368.548 441.7L292.509 397.898L227.235 433.984V434.059L303.123 478.013L368.548 441.927C368.548 441.852 368.548 441.776 368.548 441.7Z" fill="#FFFFFE"></path><path d="M303.122 478.845L303.502 478.618L368.927 442.533C369.231 442.381 369.382 442.079 369.382 441.776C369.382 441.473 369.231 441.171 368.927 441.02L292.509 396.99L226.476 433.53V434.438L226.856 434.665L303.122 478.845ZM367.108 441.776L303.122 477.105L228.675 434.06L292.433 398.806L367.108 441.776Z" fill="#0D0D0D"></path><path d="M303.502 477.938V487.772C303.502 487.848 303.35 487.924 303.274 487.924L227.083 444.046V434.211C227.083 434.135 227.159 434.135 227.159 434.135L303.502 477.938Z" fill="#0D0D0D"></path><path d="M303.426 488.68C303.578 488.68 303.729 488.605 303.881 488.529C304.184 488.378 304.336 488.075 304.336 487.772V477.559L303.957 477.332L227.311 433.228L226.856 433.455C226.628 433.606 226.477 433.908 226.477 434.135V444.424L226.856 444.651L303.047 488.529C303.047 488.605 303.198 488.68 303.426 488.68ZM302.744 478.392V486.713L227.841 443.592V435.346L302.744 478.392Z" fill="#ABD1C6"></path><path d="M195.967 322.395L133.229 286.175C131.583 285.235 129.76 285.294 128.349 286.117C128.231 286.175 128.173 286.234 128.055 286.293L120.999 290.35L123.057 299.64L125.644 299.052V451.81C125.644 456.161 127.996 460.218 131.759 462.334L189.264 494.967L192.145 502.141L199.083 498.084C200.729 497.319 201.964 495.614 201.964 493.497V332.861C202.023 328.51 199.73 324.512 195.967 322.395Z" fill="#151617"></path><path d="M191.909 502.963L188.851 495.378L131.523 462.863C127.584 460.628 125.114 456.395 125.114 451.809V299.816L122.645 300.345L120.351 290.055L127.76 285.763C127.878 285.704 127.995 285.645 128.054 285.587C129.759 284.646 131.817 284.705 133.522 285.704L196.26 321.924C200.199 324.158 202.61 328.392 202.61 332.919V493.614C202.61 495.79 201.375 497.73 199.376 498.729L191.909 502.963ZM126.29 298.346V451.809C126.29 455.924 128.524 459.805 132.111 461.804L189.792 494.555L192.497 501.317L198.847 497.612C200.434 496.848 201.434 495.319 201.434 493.555V332.86C201.434 328.744 199.2 324.922 195.672 322.865L132.934 286.645C131.582 285.881 129.994 285.822 128.583 286.586C128.466 286.645 128.407 286.704 128.289 286.763L121.586 290.643L123.468 298.934L126.29 298.346Z" fill="#0B132B"></path><path d="M118.53 455.924V294.641C118.53 290.761 122.763 288.35 126.114 290.29L188.852 326.51C192.615 328.685 194.908 332.684 194.908 336.976V497.671C194.908 501.552 190.733 503.962 187.382 502.081L124.703 466.508C120.881 464.274 118.53 460.275 118.53 455.924Z" fill="#26CD9D"></path><path d="M189.851 503.317C188.91 503.317 187.97 503.082 187.088 502.552L124.409 466.98C120.47 464.745 118 460.512 118 455.926V294.643C118 292.585 119.058 290.762 120.822 289.762C122.586 288.763 124.703 288.763 126.467 289.762L189.146 325.982C193.085 328.216 195.496 332.45 195.496 336.977V497.672C195.496 499.73 194.437 501.494 192.674 502.552C191.792 503.023 190.851 503.317 189.851 503.317ZM123.586 290.174C122.821 290.174 122.057 290.35 121.351 290.762C119.94 291.585 119.117 292.996 119.117 294.643V455.926C119.117 460.041 121.351 463.922 124.938 465.921L187.617 501.494C189.028 502.258 190.674 502.258 192.086 501.494C193.497 500.671 194.32 499.26 194.32 497.613V336.977C194.32 332.861 192.086 329.039 188.558 326.982L125.82 290.762C125.115 290.409 124.35 290.174 123.586 290.174Z" fill="#0B132B"></path><path d="M187.087 368.198C186.969 368.198 186.911 368.198 186.793 368.139L126.055 332.86C125.761 332.684 125.702 332.331 125.819 332.037C125.996 331.743 126.349 331.684 126.643 331.802L187.381 367.081C187.675 367.257 187.734 367.61 187.616 367.904C187.499 368.08 187.263 368.198 187.087 368.198Z" fill="white"></path><path d="M187.087 383.603C186.969 383.603 186.911 383.603 186.793 383.544L126.055 348.265C125.761 348.089 125.702 347.736 125.819 347.442C125.996 347.148 126.349 347.089 126.643 347.207L187.381 382.486C187.675 382.662 187.734 383.015 187.616 383.309C187.499 383.544 187.263 383.603 187.087 383.603Z" fill="white"></path><path d="M187.087 399.068C186.969 399.068 186.911 399.068 186.793 399.009L126.055 363.73C125.761 363.554 125.702 363.201 125.819 362.907C125.996 362.613 126.349 362.554 126.643 362.672L187.381 397.951C187.675 398.127 187.734 398.48 187.616 398.774C187.499 399.009 187.263 399.068 187.087 399.068Z" fill="white"></path><path d="M187.087 414.531C186.969 414.531 186.911 414.531 186.793 414.472L126.055 379.194C125.761 379.017 125.702 378.664 125.819 378.37C125.996 378.076 126.349 378.018 126.643 378.135L187.381 413.414C187.675 413.59 187.734 413.943 187.616 414.237C187.499 414.414 187.263 414.531 187.087 414.531Z" fill="white"></path><path d="M187.087 429.994C186.969 429.994 186.911 429.994 186.793 429.935L126.055 394.656C125.761 394.48 125.702 394.127 125.819 393.833C125.996 393.539 126.349 393.48 126.643 393.598L187.381 428.876C187.675 429.053 187.734 429.406 187.616 429.7C187.499 429.876 187.263 429.994 187.087 429.994Z" fill="white"></path><path d="M187.087 445.459C186.969 445.459 186.911 445.459 186.793 445.4L126.055 410.121C125.761 409.945 125.702 409.592 125.819 409.298C125.996 409.004 126.349 408.945 126.643 409.063L187.381 444.342C187.675 444.518 187.734 444.871 187.616 445.165C187.499 445.341 187.263 445.459 187.087 445.459Z" fill="white"></path><path d="M186.903 366.186V443.333" stroke="white"></path><path d="M167.469 355.586V432.733" stroke="white"></path><path d="M143.912 342.63V419.778" stroke="white"></path><path d="M126.245 332.029V409.177" stroke="white"></path><path d="M151.892 124.773L158.767 121.065C162.782 118.512 168.075 118.026 172.82 120.7L299.359 193.701C306.416 197.774 310.796 205.311 310.796 213.517V313.87C310.796 319.584 307.389 324.082 302.887 326.148L296.317 329.735L296.804 327.364C294.675 327.303 292.545 326.695 290.538 325.541L163.999 252.54C156.942 248.467 152.562 240.93 152.562 232.724V132.431C152.562 130.73 152.866 129.149 153.413 127.69L151.892 124.773Z" fill="#001E1D"></path><path d="M295.467 330.953L296.075 327.974C294.007 327.792 292.06 327.184 290.235 326.151L163.696 253.15C156.456 248.956 151.954 241.175 151.954 232.848V132.434C151.954 130.793 152.198 129.212 152.745 127.693L151.042 124.532L158.464 120.581C162.905 117.724 168.502 117.603 173.125 120.277L299.664 193.278C306.904 197.472 311.406 205.252 311.406 213.58V313.933C311.406 319.464 308.303 324.388 303.254 326.698L303.193 326.758L295.467 330.953ZM152.745 125.018L154.084 127.632L153.962 127.875C153.415 129.334 153.171 130.853 153.171 132.434V232.787C153.171 240.689 157.43 248.105 164.304 252.056L290.843 325.057C292.729 326.151 294.737 326.698 296.866 326.819H297.596L297.231 328.582L301.307 326.333L301.124 326.272L302.645 325.543C307.33 323.415 310.189 318.917 310.189 313.812V213.58C310.189 205.678 305.93 198.262 299.056 194.311L172.517 121.31C168.319 118.879 163.209 119.001 159.072 121.614L152.745 125.018Z" fill="#001E1D"></path><path d="M282.933 329.74L156.394 256.739C149.337 252.666 144.957 245.129 144.957 236.923V136.57C144.957 126.176 156.211 119.672 165.215 124.899L291.754 197.9C298.811 201.973 303.191 209.51 303.191 217.716V318.069C303.13 328.463 291.937 334.967 282.933 329.74Z" fill="white"></path><path d="M291.693 197.895L165.154 124.894C157.488 120.456 148.18 124.529 145.565 132.309L298.324 220.445C299.906 221.357 301.487 221.965 303.13 222.33V217.771C303.13 209.565 298.811 202.028 291.693 197.895Z" fill="#EBCDF5"></path><path d="M281.9 210.478L281.717 192.243L291.694 197.896C298.751 201.969 303.131 209.506 303.131 217.712V222.514L281.9 210.478Z" fill="#CDA2DB"></path><path d="M289.687 332.166C287.253 332.166 284.82 331.558 282.63 330.281L156.091 257.28C148.851 253.086 144.349 245.306 144.349 236.979V136.625C144.349 131.519 146.965 126.961 151.406 124.408C155.847 121.855 161.079 121.855 165.52 124.408L292.059 197.409C299.299 201.603 303.8 209.383 303.8 217.71V318.064C303.8 323.17 301.185 327.728 296.743 330.281C294.493 331.558 292.059 332.166 289.687 332.166ZM283.238 329.248C287.253 331.558 292.12 331.558 296.135 329.248C300.15 326.938 302.584 322.744 302.584 318.064V217.71C302.584 209.808 298.325 202.393 291.451 198.442L164.912 125.441C160.897 123.131 156.03 123.131 152.015 125.441C147.999 127.751 145.566 131.945 145.566 136.625V236.979C145.566 244.88 149.824 252.296 156.699 256.247L283.238 329.248Z" fill="#001E1D"></path><path d="M145.965 131.323L145.357 132.376L302.83 223.217L303.438 222.164L145.965 131.323Z" fill="#001E1D"></path><path d="M293.892 204.396L287.78 207.921L288.389 208.974L294.501 205.449L293.892 204.396Z" fill="#001E1D"></path><path d="M288.645 201.008L287.591 201.616L293.736 212.249L294.789 211.641L288.645 201.008Z" fill="#001E1D"></path><path d="M282.373 192.252L281.156 192.263L281.318 210.498L282.534 210.487L282.373 192.252Z" fill="#001E1D"></path><path d="M498.716 400.337L439.651 366.238C438.101 365.352 436.385 365.407 435.056 366.182C434.946 366.238 434.89 366.293 434.78 366.349L428.137 370.168L430.074 378.914L432.51 378.361V522.176C432.51 526.272 434.724 530.092 438.267 532.085L492.405 562.807L495.118 569.561L501.65 565.741C503.2 565.021 504.362 563.416 504.362 561.423V410.191C504.418 406.094 502.259 402.33 498.716 400.337Z" fill="#151617"></path><path d="M494.895 570.335L492.017 563.194L438.045 532.582C434.336 530.479 432.011 526.493 432.011 522.175V379.08L429.686 379.578L427.527 369.891L434.502 365.85C434.613 365.795 434.723 365.739 434.779 365.684C436.384 364.798 438.322 364.853 439.927 365.795L498.992 399.894C502.701 401.997 504.97 405.983 504.97 410.245V561.534C504.97 563.582 503.808 565.409 501.926 566.35L494.895 570.335ZM433.118 377.696V522.175C433.118 526.05 435.222 529.704 438.598 531.586L492.903 562.419L495.449 568.785L501.427 565.298C502.922 564.578 503.863 563.139 503.863 561.478V410.19C503.863 406.315 501.76 402.717 498.438 400.78L439.373 366.68C438.1 365.961 436.606 365.905 435.277 366.625C435.166 366.68 435.111 366.736 435 366.791L428.69 370.444L430.461 378.25L433.118 377.696Z" fill="#0B132B"></path><path d="M425.812 526.05V374.208C425.812 370.554 429.797 368.285 432.953 370.112L492.018 404.211C495.56 406.259 497.719 410.023 497.719 414.064V565.352C497.719 569.006 493.789 571.275 490.634 569.504L431.624 536.014C428.026 533.91 425.812 530.146 425.812 526.05Z" fill="white"></path><path d="M492.958 570.668C492.072 570.668 491.187 570.447 490.356 569.949L431.347 536.458C427.638 534.355 425.313 530.369 425.313 526.051V374.21C425.313 372.272 426.309 370.556 427.97 369.615C429.631 368.674 431.624 368.674 433.284 369.615L492.294 403.714C496.003 405.818 498.272 409.803 498.272 414.066V565.354C498.272 567.292 497.276 568.952 495.615 569.949C494.785 570.391 493.899 570.668 492.958 570.668ZM430.572 370.002C429.852 370.002 429.133 370.169 428.468 370.556C427.14 371.331 426.365 372.66 426.365 374.21V526.051C426.365 529.926 428.468 533.58 431.845 535.462L490.855 568.952C492.183 569.672 493.733 569.672 495.062 568.952C496.39 568.177 497.165 566.849 497.165 565.299V414.066C497.165 410.191 495.062 406.593 491.74 404.655L432.675 370.556C432.011 370.224 431.291 370.002 430.572 370.002Z" fill="#0B132B"></path><path d="M433.174 387.549L461.793 403.99V414.895L433.229 398.399L433.174 387.549Z" fill="#ABD1C6"></path><path d="M490.356 443.459C490.245 443.459 490.19 443.459 490.079 443.404L432.896 410.19C432.619 410.024 432.564 409.692 432.675 409.415C432.841 409.138 433.173 409.083 433.45 409.194L490.633 442.407C490.909 442.573 490.965 442.905 490.854 443.182C490.743 443.348 490.522 443.459 490.356 443.459Z" fill="#0B132B"></path><path d="M490.356 457.962C490.245 457.962 490.19 457.962 490.079 457.906L432.896 424.693C432.619 424.527 432.564 424.194 432.675 423.918C432.841 423.641 433.173 423.586 433.45 423.696L490.633 456.91C490.909 457.076 490.965 457.408 490.854 457.685C490.743 457.906 490.522 457.962 490.356 457.962Z" fill="#0B132B"></path><path d="M490.356 472.522C490.245 472.522 490.19 472.522 490.079 472.467L432.896 439.253C432.619 439.087 432.564 438.755 432.675 438.478C432.841 438.201 433.173 438.146 433.45 438.257L490.633 471.47C490.909 471.637 490.965 471.969 490.854 472.245C490.743 472.467 490.522 472.522 490.356 472.522Z" fill="#0B132B"></path><path d="M490.356 487.079C490.245 487.079 490.19 487.079 490.079 487.024L432.896 453.81C432.619 453.644 432.564 453.312 432.675 453.035C432.841 452.758 433.173 452.703 433.45 452.814L490.633 486.027C490.909 486.193 490.965 486.526 490.854 486.802C490.743 486.968 490.522 487.079 490.356 487.079Z" fill="#0B132B"></path><path d="M490.356 501.637C490.245 501.637 490.19 501.637 490.079 501.582L432.896 468.368C432.619 468.202 432.564 467.87 432.675 467.593C432.841 467.316 433.173 467.261 433.45 467.372L490.633 500.585C490.909 500.752 490.965 501.084 490.854 501.36C490.743 501.527 490.522 501.637 490.356 501.637Z" fill="#0B132B"></path><path d="M490.356 516.197C490.245 516.197 490.19 516.197 490.079 516.141L432.896 482.928C432.619 482.762 432.564 482.43 432.675 482.153C432.841 481.876 433.173 481.821 433.45 481.931L490.633 515.145C490.909 515.311 490.965 515.643 490.854 515.92C490.743 516.086 490.522 516.197 490.356 516.197Z" fill="#0B132B"></path><path d="M490.356 530.755C490.245 530.755 490.19 530.755 490.079 530.7L432.896 497.486C432.619 497.32 432.564 496.988 432.675 496.711C432.841 496.434 433.173 496.379 433.45 496.489L490.633 529.703C490.909 529.869 490.965 530.201 490.854 530.478C490.743 530.644 490.522 530.755 490.356 530.755Z" fill="#0B132B"></path><g clip-path="url(#clip1_1521_740)"><path d="M589.637 500.513L589.707 485.019L568.243 484.877L537.86 467.037C533.958 464.692 529.08 464.692 525.177 467.037L495.63 484.45L473.47 484.308V500.513H473.54C473.261 502.929 474.306 505.559 476.745 506.909L525.665 535.339C529.567 537.613 534.376 537.613 538.278 535.339L586.501 506.909C588.87 505.559 589.916 503 589.637 500.513Z" fill="#151617"></path><path d="M589.637 491.344L589.707 475.85L568.243 475.708L537.86 457.869C533.958 455.523 529.08 455.523 525.177 457.869L495.63 475.282L473.47 475.14V491.344H473.54C473.261 493.761 474.306 496.391 476.745 497.741L525.665 526.171C529.567 528.445 534.376 528.445 538.278 526.171L586.501 497.741C588.87 496.391 589.916 493.832 589.637 491.344Z" fill="#AB3AD0"></path><path d="M531.867 528.658C529.567 528.658 527.268 528.09 525.247 526.881L476.327 498.452C473.958 497.03 472.564 494.472 472.773 491.7V491.416V474.429L495.421 474.571L524.829 457.229C528.94 454.813 534.097 454.813 538.209 457.229L568.383 474.998L590.334 475.14L590.264 491.344C590.543 494.259 589.219 496.959 586.78 498.452L538.557 526.881C536.536 528.019 534.236 528.658 531.867 528.658ZM474.167 490.634H474.237L474.167 491.416C473.888 493.761 475.003 495.964 477.024 497.101L525.944 525.531C529.637 527.663 534.236 527.663 537.86 525.531L586.083 497.101C588.104 495.893 589.149 493.69 588.87 491.344V491.273L588.94 476.49L567.965 476.348L567.825 476.277L537.512 458.508C533.818 456.305 529.219 456.305 525.526 458.508L495.839 475.993L474.167 475.85V490.634Z" fill="#0B132B"></path><path d="M476.676 470.235L525.177 441.664C529.08 439.318 533.958 439.318 537.86 441.664L586.431 470.235C590.682 472.723 590.682 479.049 586.431 481.536L538.209 509.966C534.306 512.24 529.498 512.311 525.595 509.966L476.676 481.536C472.425 479.12 472.355 472.794 476.676 470.235Z" fill="#EBCDF5"></path><path d="M531.867 512.453C529.567 512.453 527.268 511.885 525.247 510.676L476.327 482.247C474.097 480.897 472.773 478.551 472.773 475.921C472.773 473.292 474.097 470.946 476.327 469.596L524.829 441.095C528.94 438.679 534.097 438.679 538.208 441.095L586.78 469.667C589.01 470.946 590.334 473.292 590.334 475.921C590.334 478.551 589.01 480.897 586.78 482.176L538.557 510.605C536.536 511.885 534.236 512.453 531.867 512.453ZM477.024 470.875C475.212 471.941 474.167 473.789 474.167 475.921C474.167 478.054 475.282 479.902 477.024 480.968L525.944 509.397C529.637 511.529 534.236 511.529 537.86 509.397L586.083 480.968C587.895 479.902 588.94 478.054 588.94 475.921C588.94 473.789 587.895 471.941 586.083 470.875L537.512 442.304C533.818 440.1 529.219 440.1 525.525 442.304L477.024 470.875Z" fill="#0B132B"></path><path d="M552.076 481.323L549.219 481.11L539.742 461.565C538.836 459.646 535.979 459.006 533.958 460.214L510.613 474.358L502.947 474.145V480.683C502.947 482.105 504.062 483.526 506.013 483.882L547.477 490.847C549.986 491.273 552.146 489.568 552.146 487.578V481.323H552.076Z" fill="#151617"></path><path d="M548.174 491.7C547.895 491.7 547.616 491.7 547.268 491.629L505.804 484.663C503.644 484.308 502.181 482.673 502.181 480.754V473.505L510.404 473.647L533.609 459.574C534.864 458.864 536.327 458.651 537.721 459.077C538.905 459.432 539.881 460.214 540.369 461.209L549.707 480.399L552.773 480.612V488.501L552.634 488.43C552.425 489.141 552.006 489.852 551.379 490.349C550.543 491.273 549.428 491.7 548.174 491.7ZM503.644 474.926V480.754C503.644 481.821 504.411 482.958 506.083 483.242L547.546 490.207C548.661 490.42 549.776 490.065 550.543 489.425C551.1 488.928 551.449 488.288 551.449 487.649V486.654V482.034L548.871 481.821L539.184 461.92C538.836 461.28 538.209 460.712 537.372 460.498C536.397 460.214 535.282 460.356 534.376 460.854L510.752 475.069L503.644 474.926Z" fill="#0B132B"></path><path d="M504.62 471.87L534.027 454.031C536.048 452.823 538.836 453.462 539.811 455.381L551.867 480.186C553.052 482.602 550.543 485.232 547.477 484.735L506.013 477.769C502.669 477.201 501.832 473.505 504.62 471.87Z" fill="white"></path><path d="M548.173 485.516C547.895 485.516 547.616 485.516 547.268 485.445L505.804 478.48C503.923 478.196 502.529 476.916 502.25 475.282C501.971 473.718 502.738 472.226 504.201 471.302L533.679 453.462C534.863 452.751 536.396 452.538 537.79 452.965C538.975 453.32 539.95 454.102 540.438 455.097L552.494 479.902C553.121 481.11 552.982 482.46 552.146 483.597C551.24 484.806 549.776 485.516 548.173 485.516ZM504.968 472.439C503.992 473.007 503.505 473.931 503.714 474.926C503.923 475.993 504.829 476.774 506.153 476.988L547.616 483.953C548.94 484.166 550.334 483.668 551.031 482.673C551.309 482.247 551.727 481.465 551.24 480.399L539.114 455.737C538.766 455.097 538.139 454.528 537.302 454.315C536.327 454.031 535.212 454.173 534.306 454.67L504.968 472.439Z" fill="#0B132B"></path></g><g clip-path="url(#clip2_1521_740)"><path d="M195.676 519.847L224.378 503.457C224.418 503.457 224.418 503.417 224.378 503.417L195.676 487.027L166.934 503.457L195.676 519.847Z" fill="#151617"></path><path d="M195.676 480.797L223.134 465.121V465.081L195.676 449.445L168.179 465.121L195.676 480.797Z" fill="#EDF2FB"></path><path d="M195.636 477.741L220.404 463.613V463.573L195.636 449.445L170.868 463.573L195.636 477.741Z" fill="#151617"></path><path d="M168.179 465.121V496.472L195.596 512.148C195.636 512.148 195.676 512.148 195.676 512.109V480.797L168.179 465.121Z" fill="#EBCDF5"></path><path d="M195.596 512.545C195.516 512.545 195.435 512.505 195.355 512.466L167.777 496.71V464.883L168.179 464.645L168.379 464.764L196.038 480.558V512.108C196.038 512.267 195.957 512.426 195.797 512.505C195.757 512.545 195.676 512.545 195.596 512.545ZM168.58 496.274L195.275 511.513V481.035L168.58 465.795V496.274Z" fill="#0B132B"></path><path d="M223.134 465.2V496.512L195.676 512.188H195.636V480.836L223.053 465.16C223.094 465.121 223.134 465.16 223.134 465.2Z" fill="#151617"></path><path d="M195.676 512.624L195.275 512.386V512.148V480.559L223.094 464.684L223.334 464.803C223.455 464.883 223.535 465.042 223.535 465.161V496.711L195.676 512.624ZM196.078 481.035V511.513L222.732 496.274V465.796L196.078 481.035Z" fill="#0B132B"></path><path d="M195.676 481.273L195.476 481.154L167.777 465.359V464.883L167.978 464.764L195.636 448.969L195.837 449.088L223.495 464.883V465.121C223.495 465.279 223.415 465.399 223.294 465.478L195.676 481.273ZM168.982 465.121L195.676 480.36L222.371 465.121L195.676 449.882L168.982 465.121Z" fill="#0B132B"></path><path d="M195.636 440.953L223.093 425.277V425.237L195.636 409.561L168.179 425.277L195.636 440.953Z" fill="#EDF2FB"></path><path d="M195.636 437.46L220.003 423.531V423.491L195.636 409.561L171.23 423.491L195.636 437.46Z" fill="#151617"></path><path d="M168.139 425.277V456.628L195.556 472.264C195.596 472.264 195.636 472.264 195.636 472.225V440.913L168.139 425.277C168.179 425.277 168.139 425.277 168.139 425.277Z" fill="#FBE200"></path><path d="M195.596 472.701C195.516 472.701 195.435 472.701 195.355 472.661L167.737 456.866V425.038L168.139 424.8L168.339 424.919L195.997 440.714V472.264C195.997 472.423 195.917 472.582 195.757 472.661C195.757 472.701 195.676 472.701 195.596 472.701ZM168.54 456.43L195.235 471.669V441.19L168.54 425.951V456.43Z" fill="#0B132B"></path><path d="M223.134 425.356V456.668L195.676 472.344H195.636V440.992L223.053 425.316C223.093 425.277 223.134 425.316 223.134 425.356Z" fill="#151617"></path><path d="M195.676 472.78L195.275 472.542V472.304V440.714L223.093 424.84L223.334 424.959C223.455 425.039 223.535 425.197 223.535 425.356V456.906L195.676 472.78ZM196.038 441.191V471.669L222.732 456.43V425.951L196.038 441.191Z" fill="#0B132B"></path><path d="M195.636 441.429L195.435 441.31L167.737 425.515V425.078L167.938 424.959L195.636 409.164L195.837 409.283L223.495 425.078V425.316C223.495 425.475 223.415 425.594 223.294 425.673L195.636 441.429ZM168.941 425.277L195.636 440.516L222.331 425.277L195.636 410.037L168.941 425.277Z" fill="#0B132B"></path><path d="M195.636 401.108L223.093 385.432V385.393L195.636 369.757L168.139 385.432L195.636 401.108Z" fill="#EDF2FB"></path><path d="M168.139 385.432V416.784L195.556 432.42C195.596 432.42 195.636 432.42 195.636 432.38V401.068L168.139 385.432Z" fill="#FBE200"></path><path d="M195.596 432.856C195.516 432.856 195.435 432.856 195.355 432.817L167.737 417.022V385.194L168.139 384.956L168.339 385.075L195.997 400.87V432.42C195.997 432.579 195.917 432.737 195.757 432.817C195.757 432.856 195.676 432.856 195.596 432.856ZM168.54 416.585L195.235 431.825V401.346L168.54 386.107V416.585Z" fill="#0B132B"></path><path d="M223.134 385.512V416.824L195.676 432.499H195.636V401.148L223.053 385.472C223.093 385.432 223.134 385.472 223.134 385.512Z" fill="#151617"></path><path d="M195.676 432.936L195.275 432.698V432.46V400.87L223.093 384.996L223.334 385.115C223.455 385.194 223.535 385.353 223.535 385.472V417.022L195.676 432.936ZM196.038 401.346V431.825L222.732 416.586V386.107L196.038 401.346Z" fill="#0B132B"></path><path d="M195.636 401.584L195.435 401.465L167.737 385.67V385.234L167.938 385.115L195.636 369.28L223.495 385.154V385.393C223.495 385.551 223.415 385.67 223.294 385.75L195.636 401.584ZM168.941 385.432L195.636 400.672L222.331 385.432L195.636 370.193L168.941 385.432Z" fill="#0B132B"></path><path d="M201.67 392.564C200.786 391.364 199.158 390.995 197.855 391.641H197.809C197.669 391.733 197.53 391.779 197.39 391.872L193.436 394.178L193.575 394.87L185.806 401.051L182.084 396.346C181.154 395.147 179.479 394.87 178.176 395.562C178.13 395.562 178.13 395.608 178.083 395.608L173.571 398.191L175.943 403.264L180.037 412.766L184.643 410.091L200.972 397.13C202.415 396.023 202.694 393.993 201.67 392.564Z" fill="#151617"></path><path d="M180.223 413.089C180.13 413.089 180.037 413.089 179.944 413.043C179.711 412.951 179.525 412.812 179.432 412.582L175.478 403.449L172.965 398.006L178.362 394.916V394.962C179.804 394.409 181.479 394.824 182.409 396.069L185.852 400.405L193.063 394.732L192.924 393.994L197.157 391.549C197.297 391.457 197.436 391.364 197.622 391.272L198.181 390.995V391.042C199.623 390.626 201.111 391.088 202.042 392.333C203.252 393.947 202.926 396.3 201.298 397.545L184.875 410.552L180.595 412.997C180.502 413.043 180.363 413.089 180.223 413.089ZM174.175 398.375L176.362 403.08L180.269 412.121L184.41 409.722L200.739 396.761C201.949 395.792 202.228 393.994 201.298 392.794C200.553 391.78 199.204 391.457 198.041 392.01L197.994 392.056C197.901 392.102 197.762 392.195 197.669 392.241L193.994 394.409L194.133 395.054L185.759 401.696L181.712 396.623C180.921 395.608 179.572 395.331 178.409 395.931L178.362 395.977L174.175 398.375Z" fill="#0B132B"></path><path d="M180.036 412.812L172.453 403.218C171.337 401.834 171.616 399.758 172.965 398.605C174.361 397.452 176.361 397.637 177.478 399.02L181.2 403.725L192.551 394.731C193.947 393.624 195.994 393.854 197.017 395.238C198.087 396.668 197.762 398.698 196.366 399.851L180.036 412.812Z" fill="white"></path><path d="M180.083 413.135C180.037 413.135 180.037 413.135 179.99 413.135C179.804 413.135 179.618 412.996 179.479 412.858L172.082 403.495C170.825 401.926 171.105 399.574 172.686 398.236C173.477 397.591 174.454 397.268 175.431 397.36C176.408 397.452 177.246 397.913 177.85 398.698L181.293 403.033L192.272 394.316C193.063 393.67 194.04 393.393 195.017 393.532C195.994 393.67 196.831 394.131 197.39 394.915C198.599 396.576 198.274 398.882 196.645 400.174L180.502 412.996C180.409 413.088 180.223 413.135 180.083 413.135ZM175.059 398.282C174.408 398.282 173.803 398.513 173.291 398.928C172.082 399.943 171.895 401.696 172.826 402.895L180.13 412.12L196.134 399.436C197.343 398.467 197.622 396.668 196.692 395.469C196.273 394.915 195.622 394.546 194.924 394.454C194.18 394.362 193.482 394.593 192.877 395.054L181.107 404.371L177.059 399.297C176.641 398.744 175.989 398.375 175.292 398.329C175.245 398.282 175.152 398.282 175.059 398.282Z" fill="#0B132B"></path><path d="M201.67 435.068C200.786 433.869 199.158 433.5 197.855 434.145H197.809C197.669 434.238 197.53 434.284 197.39 434.376L193.436 436.682L193.575 437.374L185.806 443.555L182.084 438.85C181.154 437.651 179.479 437.374 178.176 438.066C178.13 438.066 178.13 438.112 178.083 438.112L173.571 440.695L175.943 445.769L180.037 455.271L184.643 452.595L200.972 439.634C202.415 438.527 202.694 436.498 201.67 435.068Z" fill="#151617"></path><path d="M180.223 455.594C180.13 455.594 180.037 455.594 179.944 455.547C179.711 455.455 179.525 455.317 179.432 455.086L175.478 445.953L172.965 440.511L178.362 437.42V437.467C179.804 436.913 181.479 437.328 182.409 438.574L185.852 442.909L193.063 437.236L192.924 436.498L197.157 434.053C197.297 433.961 197.436 433.869 197.622 433.777L198.181 433.5V433.546C199.623 433.131 201.111 433.592 202.042 434.837C203.252 436.452 202.926 438.804 201.298 440.05L184.875 453.057L180.595 455.501C180.502 455.547 180.363 455.594 180.223 455.594ZM174.175 440.88L176.362 445.584L180.269 454.625L184.41 452.226L200.739 439.265C201.949 438.297 202.228 436.498 201.298 435.299C200.553 434.284 199.204 433.961 198.041 434.515L197.994 434.561C197.901 434.607 197.762 434.699 197.669 434.745L193.994 436.913L194.133 437.559L185.759 444.201L181.712 439.127C180.921 438.112 179.572 437.836 178.409 438.435L178.362 438.481L174.175 440.88Z" fill="#0B132B"></path><path d="M180.036 455.316L172.453 445.722C171.337 444.338 171.616 442.263 172.965 441.11C174.361 439.957 176.361 440.141 177.478 441.525L181.2 446.229L192.551 437.235C193.947 436.128 195.994 436.359 197.017 437.743C198.087 439.172 197.762 441.202 196.366 442.355L180.036 455.316Z" fill="white"></path><path d="M180.083 455.639C180.037 455.639 180.037 455.639 179.99 455.639C179.804 455.639 179.618 455.501 179.479 455.362L172.082 445.999C170.825 444.431 171.105 442.078 172.686 440.741C173.477 440.095 174.454 439.772 175.431 439.864C176.408 439.957 177.246 440.418 177.85 441.202L181.293 445.538L192.272 436.82C193.063 436.174 194.04 435.898 195.017 436.036C195.994 436.174 196.831 436.636 197.39 437.42C198.599 439.08 198.274 441.386 196.645 442.678L180.502 455.501C180.409 455.593 180.223 455.639 180.083 455.639ZM175.059 440.787C174.408 440.787 173.803 441.017 173.291 441.433C172.082 442.447 171.895 444.2 172.826 445.399L180.13 454.624L196.134 441.94C197.343 440.971 197.622 439.173 196.692 437.973C196.273 437.42 195.622 437.051 194.924 436.959C194.18 436.866 193.482 437.097 192.877 437.558L181.107 446.875L177.059 441.802C176.641 441.248 175.989 440.879 175.292 440.833C175.245 440.787 175.152 440.787 175.059 440.787Z" fill="#0B132B"></path></g><g clip-path="url(#clip3_1521_740)"><path d="M410.531 48.8C409.312 47.9867 408.094 47.1733 406.875 46.7667C399.969 42.7 393.469 40.6667 387.375 40.6667C385.75 40.6667 384.531 40.6667 382.906 41.0733C382.5 41.0733 381.688 41.48 381.281 41.48L410.531 25.62C413.375 24.4 416.625 23.5867 420.281 23.5867C421.094 23.5867 421.906 23.5867 422.719 23.5867C415.812 28.8733 411.75 37.4133 410.531 48.8Z" fill="#0F0F10"></path><path d="M420.281 23.5868C420.688 23.5868 421.5 23.5868 421.906 23.5868C415.406 28.8734 411.75 37.4134 410.531 48.3934C409.312 47.5801 408.5 47.1734 407.281 46.3601C400.375 42.2934 393.469 40.2601 387.375 40.2601C386.156 40.2601 384.937 40.2601 383.719 40.6668L410.938 25.6201C413.375 24.4001 416.625 23.5868 420.281 23.5868ZM420.281 22.7734C416.625 22.7734 413.375 23.5868 410.125 24.8068L376.812 43.1068C378.438 42.2934 380.469 41.4801 382.5 41.0734C383.719 40.6668 385.344 40.6668 386.969 40.6668C393.062 40.6668 399.562 42.7001 406.875 46.7668C408.094 47.5801 409.719 48.3934 410.938 49.2068C412.156 37.0068 416.625 28.0601 423.531 22.7734C422.719 22.7734 421.5 22.7734 420.281 22.7734Z" fill="#0F0F10"></path><path d="M595.375 238.713C600.25 233.833 603.094 226.107 603.094 215.94C603.094 191.133 585.219 160.633 563.688 148.027C562.875 147.62 561.656 146.807 560.844 146.4L593.344 128.507C594.156 128.913 595.375 129.727 596.594 130.133C618.125 142.74 635.594 172.833 635.594 197.64C635.594 209.433 631.531 217.973 624.625 222.447C624.625 222.853 595.375 238.713 595.375 238.713Z" fill="#0F0F10"></path><path d="M593.344 129.32C594.563 129.727 595.375 130.54 596.188 130.947C617.719 143.147 635.188 173.24 635.188 198.047C635.188 209.84 631.531 218.38 624.219 222.447H623.813L597 237.087C601.063 232.207 603.5 224.887 603.5 215.94C603.5 190.727 585.625 160.227 564.094 147.62C563.281 147.213 562.469 146.807 562.063 146.4L593.344 129.32ZM593.344 128.507L560.031 146.807C561.25 147.213 562.469 148.027 563.281 148.433C585.219 161.04 602.688 191.133 602.688 215.94C602.688 228.547 598.219 237.493 590.906 241.153L624.219 222.853H624.625C631.531 218.787 636 210.247 636 197.64C636 172.833 618.531 142.333 596.594 130.133C595.781 129.727 594.563 128.913 593.344 128.507Z" fill="#0F0F10"></path><path d="M503.562 69.9467C493.406 50.4267 478.781 33.7533 463.344 24.8067C458.063 21.5533 452.781 19.52 447.906 18.3C445.063 17.4867 442.625 17.4867 439.781 17.4867C436.938 17.4867 434.5 17.8933 432.063 18.3L459.688 3.25333C463.75 1.22 468.219 0 473.094 0C480.406 0 488.125 2.44 496.25 7.32C511.688 16.2667 526.313 32.5333 536.469 52.0533L503.562 69.9467Z" fill="#0F0F10"></path><path d="M472.688 0.813333C480 0.813333 487.719 3.25333 495.844 7.72667C511.281 16.6733 525.906 32.94 535.656 52.0533L503.562 69.54C493.406 50.02 478.781 33.7533 463.344 24.8067C458.063 21.5533 452.781 19.52 447.5 18.3C444.656 17.4867 441.812 17.4867 439.375 17.4867C437.344 17.4867 435.719 17.4867 434.094 17.8933L459.281 4.06667H459.688C463.75 1.62667 467.813 0.813333 472.688 0.813333ZM472.688 0C467.813 0 463.344 1.22 459.281 3.25333H458.875L426.781 20.74C426.781 20.74 427.187 20.3333 427.594 20.3333C431.25 18.7067 435.312 17.4867 439.781 17.4867C442.219 17.4867 445.063 17.8933 447.906 18.3C452.781 19.52 458.063 21.5533 463.344 24.4C479.594 33.7533 494.219 50.8333 503.562 69.54L536.875 51.24C527.125 32.5333 512.906 15.4533 496.656 6.1C487.719 2.44 479.594 0 472.688 0Z" fill="#0F0F10"></path><path d="M425.969 21.5534C425.969 21.5534 426.375 21.5534 426.375 21.1467L425.969 21.5534Z" fill="url(#paint0_linear_1521_740)"></path><path d="M560.844 145.993C561.25 143.147 561.656 140.3 561.656 137.047C561.656 116.307 548.25 90.6868 530.375 77.6735C528.75 76.4535 527.125 75.2335 525.5 74.4201C519.813 71.1668 514.125 69.5401 509.25 69.5401C508.031 69.5401 507.219 69.5401 506 69.9468L536.875 52.8668C538.5 52.4601 540.125 52.0535 542.156 52.0535C547.031 52.0535 552.719 53.6801 558.406 56.9335C578.312 68.3201 594.563 96.3801 594.563 119.153C594.563 122.407 594.156 125.66 593.344 128.507L560.844 145.993Z" fill="#0F0F10"></path><path d="M542.156 52.4601C547.031 52.4601 552.313 54.0867 558 57.3401C577.906 68.7267 593.75 96.3801 593.75 119.153C593.75 122.407 593.344 125.253 592.938 128.1L561.25 145.18C561.656 142.74 562.063 139.893 562.063 137.047C562.063 116.307 548.656 90.2801 530.375 77.2667C528.75 76.0467 527.125 74.8267 525.5 74.0134C519.813 70.7601 514.125 69.1334 508.844 69.1334C508.438 69.1334 508.031 69.1334 507.219 69.1334L536.469 53.2734C538.5 52.4601 540.125 52.4601 542.156 52.4601ZM542.156 51.6467C540.125 51.6467 538.5 52.0534 536.875 52.4601L503.562 70.7601C505.188 70.3534 507.219 69.9467 508.844 69.9467C513.719 69.9467 519.406 71.5734 525.094 74.8267C526.719 75.6401 528.344 76.8601 529.969 78.0801C547.844 91.0934 561.25 116.307 561.25 137.453C561.25 141.113 560.844 143.96 560.031 146.807L593.344 128.507C594.156 125.66 594.563 122.407 594.563 119.153C594.563 96.3801 578.313 68.3201 558.406 56.5267C552.313 53.2734 547.031 51.6467 542.156 51.6467Z" fill="#0F0F10"></path><path d="M567.75 63.8467C568.969 64.66 569.781 65.88 571 67.1C570.188 65.88 568.969 64.66 567.75 63.8467Z" fill="url(#paint1_linear_1521_740)"></path><path d="M363 71.9801C363 100.04 382.5 133.793 406.875 148.027C407.688 148.433 568.156 240.747 570.188 241.56C588.875 248.473 602.688 238.307 602.688 215.94C602.688 191.133 585.219 160.633 563.281 148.433C562.063 147.62 560.844 147.213 560.031 146.807C560.844 143.96 561.25 140.707 561.25 137.453C561.25 116.307 547.438 91.0935 529.969 78.0801C528.344 76.8601 526.719 76.0468 525.094 74.8268C516.969 69.9468 509.656 68.7268 503.563 70.7601C493.813 52.0534 479.594 34.9734 463.344 25.6201C458.063 22.3668 452.781 20.3335 447.906 19.5201C440.188 17.8935 433.281 18.7068 427.594 21.1468C418.656 25.6201 412.563 35.3801 411.344 50.0201C410.125 49.2068 408.5 48.3934 407.281 47.5801C398.344 42.2934 390.219 40.6668 383.313 41.8868C371.125 43.5134 363 54.4935 363 71.9801Z" fill="#10417C"></path><path d="M591.313 234.24C542.969 206.18 423.125 137.047 422.313 136.64C409.719 128.913 398.344 116.307 389.406 100.853C380.063 84.5867 374.781 67.1 374.781 52.0534V51.6467C373.563 52.8667 372.344 54.9 371.125 56.5267C378.031 42.2934 395.094 43.5134 415.406 59.3734C416.625 -4.47332 477.969 27.2467 500.313 76.4534C531.594 69.1334 564.094 118.747 553.938 150.06C577.094 155.347 612.844 211.873 591.313 234.24Z" fill="url(#paint2_linear_1521_740)"></path><path d="M375.188 44.3268L376.813 43.5134C376.406 43.5134 376 43.9201 375.188 44.3268Z" fill="#E5FFFF"></path><path d="M376.813 49.6133C376 50.0199 375.594 50.8333 375.188 51.24C375.188 50.8333 376 50.0199 376.813 49.6133Z" fill="url(#paint3_linear_1521_740)"></path><path d="M581.156 238.307C578.312 238.307 575.469 237.493 572.219 236.273C571 235.867 569.781 235.46 568.969 234.647C568.156 234.24 410.125 143.147 408.094 141.927C397.938 135.42 388.188 124.847 380.875 112.24C373.156 98.8199 368.688 84.5866 368.688 71.9799C368.688 63.4399 370.719 56.5266 374.375 52.0532C374.375 67.0999 379.656 84.1799 389 100.447C397.938 115.9 409.719 128.507 422.313 136.64C422.719 137.047 510.875 187.88 568.969 221.227L591.312 234.24C588.469 237.087 585.219 238.307 581.156 238.307Z" fill="white"></path><path d="M373.969 53.2733C374.375 68.32 379.656 84.9933 388.594 100.853C397.531 116.307 409.312 129.32 421.906 137.047C422.312 137.453 493 178.12 565.719 220.007L590.5 234.24C588.062 236.273 584.812 237.493 581.156 237.493C578.312 237.493 575.469 236.68 572.219 235.46C571 235.053 569.781 234.647 568.969 233.833C568.156 233.427 410.125 142.333 408.094 141.113C397.938 134.607 388.188 124.033 380.875 111.833C373.156 98.4133 368.688 84.18 368.688 71.5733C369.094 63.8467 370.719 57.7467 373.969 53.2733ZM374.781 51.24C370.719 55.7133 368.281 62.6267 368.281 71.98C368.281 84.5867 372.75 98.82 380.469 112.647C387.781 125.253 397.531 135.827 407.688 142.333C408.094 142.74 567.75 235.053 568.562 235.053C569.781 235.46 571 236.273 572.219 236.68C575.469 237.9 578.312 238.713 581.156 238.713C586.031 238.713 589.688 236.68 592.531 233.427C592.125 233.833 591.719 234.24 591.312 234.647C543.375 206.993 422.719 137.047 421.906 136.64C409.312 128.913 397.938 116.307 389 100.853C379.656 84.5867 374.375 67.1 374.375 52.0533C374.781 51.6467 374.781 51.6467 374.781 51.24Z" fill="#272525"></path><path d="M563.688 154.126C562.469 153.313 561.25 152.906 560.438 152.5C560.844 150.873 561.25 148.84 561.25 147.213C562.063 147.62 562.875 148.026 563.688 148.433C585.219 161.04 602.688 191.133 602.688 215.94C602.688 216.753 602.688 217.973 602.688 218.786C601.469 194.793 584.406 166.326 563.688 154.126Z" fill="#E5FFFF"></path><path d="M529.969 83.7732C528.344 82.5532 526.719 81.7399 525.094 80.5199C516.969 75.6399 509.656 74.4199 503.563 76.4532C493.813 57.7465 479.594 40.6665 463.344 31.3132C458.063 28.0599 452.781 26.0265 447.906 25.2132C440.188 23.5865 433.281 24.3999 427.594 26.8399C418.656 31.3132 412.563 41.0732 411.344 55.7132C410.125 54.8999 408.5 54.0865 407.281 53.2732C398.344 47.9865 390.219 46.3599 383.313 47.5799C371.938 49.6132 364.219 59.3732 363.406 75.6399C363.406 74.8265 363.406 73.6065 363.406 72.7932C363.406 54.8999 371.531 43.9199 383.313 41.8865C390.219 40.6665 398.344 42.2932 407.281 47.5799C408.5 48.3932 410.125 49.2065 411.344 50.0199C412.563 35.7865 418.656 25.6199 427.594 21.1465C433.281 18.2999 440.188 17.4865 447.906 19.5199C452.781 20.7399 458.063 22.7732 463.344 25.6199C479.594 34.9732 494.219 52.0532 503.563 70.7599C509.656 69.1332 516.969 70.3532 525.094 74.8265C526.719 75.6399 528.344 76.8599 529.969 78.0799C547.844 91.0932 561.25 116.307 561.25 137.453C561.25 138.267 561.25 139.487 561.25 140.3C560.031 119.56 546.625 95.9732 529.969 83.7732Z" fill="#E5FFFF"></path><path d="M581.156 243.593C572.625 242.78 570.594 241.56 568.969 240.747C568.563 240.34 568.156 240.34 567.344 239.933C547.844 228.953 439.781 166.733 414.188 152.093C380.063 135.827 360.156 93.5334 363.813 65.8801C365.438 52.8668 372.344 44.3268 382.906 41.8868C384.125 41.4801 385.344 41.4801 386.969 41.4801C394.281 41.4801 403.625 44.7335 410.938 50.0201C410.938 50.0201 410.938 50.0201 411.344 50.0201C411.344 50.0201 411.344 50.0201 411.75 49.6134C413.375 30.0935 423.938 18.7068 440.188 18.7068C446.281 18.7068 452.375 20.3335 458.469 23.1801C476.344 32.1268 490.969 47.5801 503.156 70.7601C503.156 70.7601 503.156 70.7601 503.563 70.7601C505.188 70.3534 507.219 70.3534 508.844 70.3534C529.156 70.3534 548.656 93.9401 556.781 115.9C559.625 124.033 561.25 130.54 560.844 139.893C561.25 141.113 560.844 142.333 560.438 143.553C560.031 145.18 559.219 146.807 561.25 147.62C588.875 161.447 606.75 202.113 601.875 225.7C599.844 233.427 594.969 242.78 581.156 243.593ZM569.375 235.46C569.781 235.867 575.063 239.12 581.156 239.12C583.188 239.12 585.219 238.713 587.25 237.9C596.188 232.207 599.844 222.04 597.813 208.62C593.75 184.627 571.813 154.533 554.75 149.653C559.219 134.2 553.938 113.46 541.75 96.7868C531.594 82.9601 518.594 74.8268 506.406 74.8268C504.375 74.8268 502.344 75.2334 500.313 75.6401C487.313 46.7668 459.688 23.1801 439.375 23.1801C424.344 23.1801 415.813 35.7868 415 58.5601C404.844 50.4268 395.094 46.3601 386.969 46.3601C381.688 46.3601 377.219 48.3935 373.969 52.0535C368.688 57.7468 367.063 67.9134 368.688 81.3334C371.531 104.513 389 131.76 407.688 143.147C408.094 142.74 547.844 223.26 569.375 235.46Z" fill="white"></path><path d="M439.781 18.7067C445.469 18.7067 451.969 20.3334 458.063 23.18C475.938 32.1267 490.563 47.58 502.75 70.3534C502.75 70.76 503.156 70.76 503.563 70.76C505.188 70.3534 507.219 70.3534 508.844 70.3534C529.156 70.3534 548.656 93.5334 556.781 115.493C559.625 123.627 561.25 130.133 560.844 139.487C561.25 140.707 560.844 141.52 560.438 142.74C560.031 144.367 559.219 146.4 561.25 147.213C588.875 161.04 606.344 201.3 601.469 224.887C599.844 232.613 594.969 241.967 581.156 242.78C572.625 241.967 570.594 240.747 568.969 239.933C568.563 239.527 568.156 239.12 567.344 239.12C547.438 228.14 439.781 165.92 414.188 151.28C380.469 135.013 360.563 93.1267 363.813 65.4734C365.438 52.46 372.344 43.92 382.906 41.8867C384.125 41.48 385.344 41.48 386.969 41.48C393.875 41.48 403.219 44.7334 410.531 50.0201H410.938H411.344C411.75 50.0201 411.75 49.6134 411.75 49.6134C413.375 30.5 423.938 18.7067 439.781 18.7067ZM415 57.7467C404.844 50.02 395.094 45.9534 387.375 45.9534C382.094 45.9534 377.625 47.9867 373.969 51.6467C368.688 57.34 366.656 67.9134 368.281 80.9267C371.125 104.107 388.594 131.353 407.281 143.147C407.688 143.147 547.438 223.667 568.969 235.867C570.188 236.68 575.063 239.12 580.75 239.12C582.781 239.12 585.219 238.713 587.25 237.9C596.188 232.207 599.844 221.633 597.813 208.213C593.75 184.22 571.813 154.127 554.75 148.84C559.219 133.387 554.344 113.053 541.75 96.3801C531.594 82.5534 518.594 74.42 506 74.42C503.969 74.42 501.938 74.8267 500.313 75.2334C486.906 46.36 459.688 22.7734 438.969 22.7734C430.844 22.7734 415.813 27.2467 415 57.7467ZM439.781 18.3C424.75 18.3 412.563 28.06 410.938 49.6134C403.625 44.3267 394.281 41.0734 386.969 41.0734C385.344 41.0734 384.125 41.0734 382.906 41.48C345.125 49.2067 364.219 128.507 414.188 152.093C443.031 168.767 547.844 229.36 567.344 239.933C569.375 240.747 569.781 242.78 581.156 244C620.563 242.373 601.875 167.547 561.25 147.213C558.406 145.587 561.656 142.74 561.25 139.893C561.656 130.947 560.031 124.44 557.188 115.9C549.875 95.5667 530.375 70.3534 508.844 70.3534C507.219 70.3534 505.188 70.3534 503.563 70.76C492.594 50.02 478.375 32.94 458.469 23.18C452.375 19.9267 445.875 18.3 439.781 18.3ZM415.406 58.9667C415.813 33.3467 425.969 23.18 439.375 23.18C459.281 23.18 486.906 46.3601 500.313 75.64C502.344 75.2334 504.375 74.8267 506.406 74.8267C535.656 74.8267 562.875 119.967 553.938 149.247C578.313 155.347 616.906 217.973 586.844 237.087C584.813 237.9 582.781 238.307 580.75 238.307C574.25 238.307 568.969 235.053 568.969 235.053C548.25 223.26 408.5 142.74 407.688 142.333C389 130.947 371.938 104.107 368.688 80.9267C365.844 57.7467 373.969 46.7667 386.563 46.7667C395.094 46.36 404.844 50.8334 415.406 58.9667ZM569.375 235.053C569.375 235.46 569.781 235.46 569.375 235.053C569.375 235.46 569.375 235.053 569.375 235.053Z" fill="#272525"></path><path d="M590.5 234.5C587.131 238 575.5 238.5 571 235C516.751 203.595 416.242 145.872 415.5 145.5C402.906 137.773 398.344 116.307 389.406 100.853C380.063 84.5867 374.781 67.1 374.781 52.0534V51.6467C373.563 52.8667 372.344 54.9 371.125 56.5267C378.031 42.2934 395.094 43.5134 415.406 59.3734C416.625 -4.47332 477.969 27.2467 500.313 76.4534C531.594 69.1334 564.094 118.747 553.938 150.06C577.094 155.347 613 212.5 590.5 234.5Z" fill="#ABD1C6"></path><path d="M512.5 117.933C499.906 147.62 467.406 163.887 431.656 162.26C417.031 153.72 407.281 148.027 406.875 148.027C382.5 133.793 363 100.04 363 71.98C363 54.0867 371.125 43.1067 382.906 41.0733C389.812 39.8533 397.938 41.48 406.875 46.7666C408.094 47.58 409.719 48.3933 410.938 49.2067C412.156 34.9733 418.25 24.8066 427.188 20.3333C432.875 17.4866 439.781 16.6733 447.5 18.7066C452.375 19.9266 457.656 21.96 462.938 24.8066C479.188 34.16 493.812 51.24 503.156 69.9467C506.406 69.1333 510.062 69.1333 514.125 69.9467C519.406 86.2133 519 102.887 512.5 117.933Z" fill="url(#paint4_linear_1521_740)"></path><path d="M436.531 161.853C434.906 161.853 433.281 161.853 431.656 161.853L428 159.82C428 159.82 407.281 148.027 407.281 147.62C382.906 133.793 363.406 99.6333 363.406 71.98C363.406 54.9 370.719 43.5133 382.906 41.48C384.125 41.0733 385.75 41.0733 386.969 41.0733C393.062 41.0733 399.562 43.1066 406.469 47.1733C407.687 47.9866 409.312 48.8 410.531 49.6133C410.531 49.6133 410.531 49.6133 410.531 49.2066C411.75 35.38 417.437 25.2133 426.781 20.74C430.438 19.1133 434.5 17.8933 438.969 17.8933C441.406 17.8933 444.25 18.3 446.688 18.7066C452.375 20.3333 457.656 22.3666 462.938 25.62C469.438 29.6866 475.937 34.5666 482.031 41.0733C490.156 49.6133 497.469 59.78 503.156 70.76C503.156 70.76 503.156 70.76 503.562 70.76C505.188 70.3533 507.219 69.9466 508.844 69.9466C510.469 69.9466 512.5 70.3533 514.531 70.76C519.406 87.0266 518.594 103.293 512.5 117.933C500.719 145.18 471.875 161.853 436.531 161.853Z" fill="white"></path><path d="M439.375 18.7067C441.812 18.7067 444.656 19.1134 447.094 19.52C451.969 20.74 457.25 22.7734 462.531 25.62C469.031 29.28 475.531 34.5667 481.625 41.0734C489.75 49.2067 497.062 59.78 502.75 70.76C502.75 71.1667 503.156 71.1667 503.562 71.1667C505.188 70.76 506.812 70.3534 508.844 70.3534C510.469 70.3534 512.094 70.3534 514.125 70.76C519 87.0267 518.188 102.887 512.094 117.527C500.719 144.773 471.469 161.447 436.531 161.447C434.906 161.447 433.281 161.447 432.062 161.447L428.406 159.413C426.375 158.193 424.344 156.973 422.719 156.16L410.531 149.247L407.688 147.62C383.312 133.387 363.812 99.6334 363.812 71.9801C363.812 55.3067 371.125 43.92 383.312 41.8867C384.531 41.48 386.156 41.48 387.375 41.48C393.469 41.48 399.969 43.5134 406.875 47.58C408.094 48.3934 409.312 49.2067 410.938 50.0201H411.344H411.75C412.156 50.0201 412.156 49.6134 412.156 49.6134C413.375 35.7867 419.062 26.0267 428 21.5534C431.25 19.52 435.312 18.7067 439.375 18.7067ZM439.375 18.3C434.906 18.3 430.844 19.1134 427.188 21.1467C418.25 25.62 412.156 35.3801 410.938 50.0201C409.719 49.2067 408.094 48.3934 406.875 47.58C399.969 43.5134 393.062 41.48 387.375 41.48C385.75 41.48 384.531 41.48 382.906 41.8867C371.125 43.5134 363 54.4934 363 71.9801C363 100.04 382.5 133.793 406.875 148.027C406.875 148.027 412.562 151.28 421.906 156.567C424.75 158.193 428 160.227 431.656 162.26C433.281 162.26 434.906 162.26 436.531 162.26C470.656 162.26 500.719 145.993 512.906 117.933C519.406 102.887 519.406 86.2134 514.938 70.3534C512.906 69.9467 511.281 69.5401 509.25 69.5401C507.219 69.5401 505.594 69.9467 503.969 70.3534C498.281 59.3734 490.969 49.2067 482.844 40.6667C476.75 34.5667 470.25 29.28 463.75 25.2134C458.469 21.96 453.188 19.9267 448.312 19.1134C444.656 18.3 442.219 18.3 439.375 18.3Z" fill="#272525"></path><path d="M474.159 118.903L477.441 117.067V125.586L474.159 127.349V118.903Z" fill="#373737"></path><path d="M521.869 118.976L525.225 117.14V125.66L521.869 127.423V118.976Z" fill="#373737"></path><path d="M521.869 178.76L525.225 176.924V185.443L521.869 187.279V178.76Z" fill="#373737"></path><path d="M477.44 125.587V117.067C479.191 118.022 480.431 118.609 481.306 118.756C482.182 118.903 482.911 118.609 483.568 118.022C484.224 117.434 484.662 116.406 484.881 115.084C485.1 114.056 485.173 112.146 485.173 109.355C485.173 104.728 485.392 101.717 485.829 100.101C486.267 98.5591 486.997 97.6043 488.091 97.1636C489.185 96.723 490.79 96.8699 492.906 97.6043C494.365 98.045 496.626 99.2935 499.69 101.203L501.587 102.378V110.824C498.961 109.209 497.283 108.254 496.553 108.107C495.824 107.96 495.24 108.033 494.875 108.401C494.511 108.768 494.365 109.723 494.365 111.192C494.365 112.66 494.292 115.451 494.073 119.491C493.927 121.767 493.635 123.457 493.125 124.632C492.614 125.807 492.03 126.615 491.228 127.055C490.498 127.496 489.258 127.79 487.726 127.79C489.112 129.479 490.279 131.095 491.155 132.784C492.03 134.4 492.687 136.163 493.197 137.999C493.635 139.835 494 142.112 494.146 144.756C494.292 148.795 494.365 151.366 494.365 152.467C494.365 154.01 494.584 155.258 494.948 156.066C495.313 156.947 495.897 157.755 496.626 158.563C497.356 159.371 499.034 160.546 501.587 162.162V170.681L499.69 169.506C496.48 167.523 494.073 165.687 492.395 164.145C490.717 162.603 489.258 160.84 488.091 158.93C486.924 157.021 486.121 155.038 485.756 153.055C485.392 151.072 485.173 148.207 485.173 144.462C485.173 140.129 484.954 137.117 484.589 135.575C484.079 133.372 483.276 131.536 482.255 129.993C481.233 128.524 479.629 127.055 477.44 125.587Z" fill="#373737"></path><path d="M549.367 170.755C547.616 169.8 546.376 169.212 545.501 169.065C544.625 168.919 543.896 169.212 543.239 169.8C542.583 170.387 542.145 171.416 541.926 172.738C541.707 173.766 541.634 175.675 541.634 178.466C541.634 183.093 541.415 186.178 541.051 187.72C540.613 189.263 539.884 190.291 538.789 190.658C537.695 191.099 536.09 190.878 533.902 190.217C532.443 189.777 530.181 188.528 527.117 186.619L525.22 185.444V176.924C527.774 178.54 529.379 179.348 530.181 179.568C530.983 179.715 531.494 179.641 531.859 179.274C532.224 178.907 532.443 178.026 532.443 176.557C532.443 175.088 532.588 172.444 532.734 168.478C532.88 166.054 533.172 164.292 533.683 163.19C534.193 162.015 534.923 161.207 535.725 160.693C536.601 160.179 537.695 159.958 539.008 160.032C537.257 157.829 536.017 155.919 535.215 154.303C534.12 152.026 533.318 149.603 532.953 146.885C532.661 145.049 532.515 141.304 532.37 135.575C532.37 133.812 532.224 132.49 531.859 131.682C531.567 130.874 531.056 130.14 530.254 129.332C529.524 128.524 527.774 127.276 525.147 125.586V117.14L527.044 118.315C530.254 120.298 532.661 122.061 534.339 123.677C536.017 125.219 537.476 126.982 538.643 128.891C539.811 130.801 540.613 132.784 540.978 134.767C541.415 136.75 541.561 139.614 541.561 143.36C541.561 147.693 541.707 150.631 542.072 152.173C542.583 154.377 543.385 156.213 544.406 157.755C545.501 159.224 547.106 160.693 549.221 162.235V170.755H549.367Z" fill="#373737"></path><path d="M474.163 127.422V118.903C475.914 119.858 477.154 120.445 478.029 120.592C478.905 120.739 479.634 120.445 480.291 119.858C480.947 119.27 481.385 118.242 481.604 116.92C481.823 115.892 481.896 113.982 481.896 111.191C481.896 106.564 482.115 103.553 482.552 101.937C482.99 100.395 483.719 99.44 484.814 98.9993C485.908 98.5587 487.513 98.7056 489.628 99.44C491.088 99.8807 493.349 101.129 496.413 103.039L498.31 104.214V112.733C495.683 111.118 494.006 110.163 493.276 110.016C492.547 109.869 491.963 109.943 491.598 110.31C491.306 110.604 491.088 111.558 491.088 113.027C491.088 114.496 491.015 117.287 490.796 121.326C490.65 123.603 490.358 125.292 489.847 126.468C489.337 127.643 488.753 128.45 487.951 128.891C487.221 129.332 485.981 129.626 484.449 129.626C485.835 131.315 487.002 132.931 487.878 134.62C488.753 136.236 489.41 137.998 489.92 139.834C490.358 141.67 490.723 143.947 490.869 146.591C491.015 150.631 491.088 153.201 491.088 154.303C491.088 155.845 491.306 157.094 491.671 157.902C492.036 158.783 492.619 159.591 493.349 160.399C494.079 161.207 495.756 162.382 498.31 163.998V172.517L496.413 171.342C493.203 169.359 490.796 167.523 489.118 165.981C487.44 164.438 485.981 162.676 484.814 160.766C483.647 158.856 482.844 156.873 482.479 154.89C482.115 152.907 481.896 150.043 481.896 146.297C481.896 141.964 481.677 138.953 481.312 137.411C480.801 135.207 479.999 133.371 478.978 131.829C477.956 130.36 476.351 128.891 474.163 127.422Z" fill="#EBCDF5"></path><path d="M498.675 173.178L496.268 171.636C493.058 169.653 490.578 167.817 488.9 166.201C487.222 164.585 485.69 162.823 484.523 160.913C483.356 159.004 482.553 156.947 482.116 154.891C481.678 152.908 481.532 149.97 481.532 146.224C481.532 141.891 481.313 138.953 480.948 137.484C480.438 135.281 479.635 133.518 478.687 132.049C477.666 130.654 476.061 129.185 473.945 127.716L473.799 127.569V118.242L474.31 118.536C475.988 119.49 477.228 120.005 478.03 120.151C478.833 120.225 479.416 120.078 480 119.49C480.584 118.976 480.948 118.022 481.167 116.7C481.386 115.671 481.459 113.762 481.459 110.971C481.459 106.271 481.678 103.259 482.116 101.644C482.553 99.9543 483.429 98.9261 484.669 98.4854C485.836 98.0448 487.514 98.1916 489.775 98.9261C491.234 99.4402 493.569 100.615 496.633 102.598L498.675 103.847V113.248L498.092 112.881C494.882 110.898 493.642 110.31 493.204 110.237C492.621 110.09 492.183 110.163 491.891 110.457C491.745 110.604 491.453 111.191 491.453 112.954C491.453 114.423 491.38 117.14 491.162 121.253C491.016 123.603 490.724 125.293 490.213 126.541C489.702 127.79 488.973 128.598 488.171 129.112C487.441 129.552 486.493 129.773 485.18 129.846C486.347 131.315 487.368 132.857 488.171 134.326C489.046 135.942 489.775 137.778 490.213 139.614C490.724 141.45 491.016 143.801 491.162 146.445C491.307 150.557 491.38 153.055 491.38 154.156C491.38 155.625 491.526 156.8 491.891 157.608C492.256 158.416 492.766 159.224 493.569 159.958C494.298 160.766 495.976 161.941 498.457 163.484L498.603 163.557V173.178H498.675ZM474.529 127.202C476.644 128.671 478.249 130.14 479.27 131.609C480.365 133.151 481.167 135.061 481.678 137.264C482.043 138.88 482.261 141.744 482.261 146.224C482.261 149.896 482.48 152.834 482.845 154.744C483.21 156.653 484.012 158.636 485.18 160.472C486.347 162.382 487.733 164.071 489.411 165.613C491.089 167.156 493.496 168.918 496.633 170.901L497.946 171.709V164.145C495.466 162.602 493.861 161.427 493.058 160.619C492.256 159.811 491.672 158.93 491.307 158.049C490.943 157.167 490.724 155.845 490.724 154.303C490.724 153.201 490.651 150.704 490.505 146.591C490.359 143.947 490.067 141.671 489.63 139.908C489.192 138.072 488.462 136.383 487.66 134.767C486.784 133.151 485.69 131.535 484.304 129.846L483.793 129.259H484.523C486.055 129.259 487.149 128.965 487.879 128.598C488.608 128.157 489.192 127.422 489.63 126.321C490.14 125.219 490.432 123.53 490.505 121.327C490.724 117.214 490.797 114.496 490.797 113.027C490.797 111.412 491.016 110.457 491.453 110.016C491.891 109.502 492.548 109.355 493.423 109.576C494.153 109.722 495.684 110.53 498.019 111.999V104.361L496.341 103.259C493.277 101.35 491.016 100.175 489.63 99.6605C487.587 98.9995 486.055 98.8526 485.034 99.2199C483.939 99.6605 483.283 100.542 482.918 101.937C482.48 103.48 482.261 106.491 482.261 111.044C482.261 113.909 482.189 115.818 481.97 116.846C481.751 118.315 481.24 119.344 480.584 120.005C479.854 120.666 478.979 120.959 478.03 120.812C477.228 120.666 476.061 120.225 474.529 119.417V127.202Z" fill="#373737"></path><path d="M546.015 172.591C544.264 171.636 543.024 171.049 542.149 170.902C541.273 170.755 540.544 171.049 539.887 171.636C539.231 172.224 538.793 173.252 538.574 174.574C538.355 175.602 538.282 177.512 538.282 180.303C538.282 184.93 538.063 188.014 537.699 189.557C537.261 191.099 536.531 192.127 535.437 192.494C534.343 192.935 532.738 192.788 530.549 192.054C529.09 191.613 526.829 190.364 523.765 188.455L521.868 187.28V178.76C524.422 180.376 526.026 181.184 526.829 181.404C527.631 181.551 528.142 181.478 528.507 181.11C528.872 180.743 529.09 179.862 529.09 178.393C529.09 176.924 529.236 174.28 529.382 170.314C529.528 167.89 529.82 166.128 530.331 165.026C530.841 163.851 531.571 163.043 532.373 162.529C533.249 162.015 534.343 161.795 535.656 161.868C533.905 159.665 532.665 157.755 531.863 156.139C530.768 153.863 529.966 151.439 529.601 148.722C529.309 146.885 529.163 143.14 529.017 137.411C529.017 135.648 528.799 134.326 528.507 133.592C528.215 132.784 527.704 132.05 526.902 131.242C526.172 130.434 524.422 129.185 521.795 127.496V118.977L523.692 120.152C526.902 122.135 529.309 123.897 530.987 125.513C532.665 127.055 534.124 128.818 535.291 130.728C536.458 132.637 537.261 134.62 537.626 136.603C538.063 138.586 538.209 141.451 538.209 145.196C538.209 149.529 538.355 152.467 538.72 154.009C539.231 156.213 540.033 158.049 541.054 159.591C542.149 161.06 543.754 162.529 545.869 164.071L546.015 172.591Z" fill="#EBCDF5"></path><path d="M533.976 193.155C533.028 193.155 531.788 192.935 530.402 192.494C528.943 191.98 526.608 190.805 523.544 188.822L521.502 187.573V178.173L522.085 178.54C525.149 180.449 526.389 181.037 526.9 181.11C527.557 181.257 527.994 181.184 528.286 180.89C528.432 180.743 528.724 180.156 528.724 178.393C528.724 176.924 528.797 174.28 529.016 170.314C529.162 167.817 529.453 166.054 530.037 164.879C530.548 163.631 531.35 162.749 532.225 162.235C532.955 161.794 533.903 161.574 534.925 161.574C533.393 159.591 532.298 157.828 531.496 156.36C530.402 154.083 529.599 151.512 529.234 148.868C528.943 147.032 528.797 143.213 528.651 137.484C528.651 135.722 528.505 134.473 528.213 133.739C527.921 133.004 527.411 132.27 526.681 131.462C525.952 130.654 524.201 129.479 521.648 127.79L521.502 127.716V118.315L523.909 119.858C527.119 121.841 529.599 123.677 531.277 125.219C532.955 126.835 534.414 128.598 535.581 130.507C536.748 132.49 537.551 134.473 537.989 136.53C538.426 138.586 538.645 141.45 538.645 145.196C538.645 149.456 538.791 152.467 539.156 153.936C539.666 156.066 540.469 157.902 541.49 159.371C542.512 160.84 544.116 162.309 546.232 163.704L546.378 163.777V173.105L545.867 172.811C544.189 171.856 542.949 171.342 542.147 171.195C541.417 171.122 540.761 171.269 540.177 171.856C539.594 172.444 539.229 173.325 538.937 174.647C538.791 175.602 538.645 177.512 538.645 180.302C538.645 184.929 538.426 188.088 537.989 189.63C537.551 191.319 536.675 192.421 535.508 192.861C535.071 193.082 534.56 193.155 533.976 193.155ZM522.231 187.133L523.909 188.234C526.973 190.144 529.234 191.319 530.621 191.833C532.663 192.494 534.268 192.641 535.289 192.274C536.311 191.907 536.967 191.025 537.332 189.556C537.77 188.014 537.916 184.929 537.916 180.376C537.916 177.512 537.989 175.602 538.207 174.574C538.499 173.178 538.937 172.077 539.666 171.416C540.396 170.755 541.198 170.461 542.22 170.608C543.022 170.755 544.189 171.195 545.721 172.003V164.292C543.606 162.823 542.001 161.354 540.98 159.885C539.885 158.343 539.083 156.433 538.572 154.23C538.207 152.614 538.062 149.75 538.062 145.343C538.062 141.671 537.843 138.733 537.478 136.823C537.04 134.84 536.311 132.931 535.144 131.021C533.976 129.112 532.59 127.423 530.912 125.88C529.234 124.338 526.827 122.575 523.617 120.592L522.231 119.637V127.276C524.857 128.891 526.462 130.14 527.265 130.948C528.067 131.756 528.651 132.637 528.943 133.445C529.234 134.253 529.453 135.575 529.453 137.411C529.599 143.066 529.745 146.885 530.037 148.648C530.402 151.292 531.204 153.716 532.298 155.919C533.101 157.461 534.341 159.371 536.092 161.574L536.53 162.235H535.727C534.487 162.162 533.393 162.382 532.59 162.823C531.788 163.263 531.131 164.071 530.693 165.099C530.183 166.201 529.891 167.964 529.745 170.314C529.526 174.353 529.453 176.997 529.453 178.393C529.453 179.935 529.234 180.89 528.797 181.404C528.359 181.845 527.63 181.992 526.754 181.845C525.952 181.698 524.493 180.89 522.231 179.495V187.133Z" fill="#373737"></path><path d="M498.307 104.141L501.663 102.305V110.824L498.307 112.66V104.141Z" fill="#373737"></path><path d="M498.307 163.998L501.663 162.162V170.681L498.307 172.518V163.998Z" fill="#373737"></path><path d="M546.015 163.998L549.371 162.162V170.755L546.015 172.518V163.998Z" fill="#373737"></path></g><g clip-path="url(#clip4_1521_740)"><g opacity="0.5"><path d="M69.3 379.2L59.1 364.6C56.9 361.5 49.7 360.2 44.3 362C44.3 362 44.3 362 44.4 362C43.9 362.2 43.4 362.3 42.8 362.6L21.5 373.5C21 373.7 20.6 374 20.2 374.3C15.7 377 17.8 381.2 24.6 381.8L59.6 384.6C62.1 385.1 71.8 384.2 69.3 379.2ZM27.2 376.4C30.5 374.7 44.4 367.6 48.8 365.3C49.6 364.9 50.5 365.1 51 365.8L60.4 379.2C60.5 379.4 60.4 379.6 60.2 379.6C56.3 379.3 32.2 377.3 27.3 376.9C27 376.8 26.9 376.5 27.2 376.4Z" fill="#131314"></path></g><path d="M34.3 297.3L5.50003 325.5C-0.699971 331.6 -0.0999713 344 7.90003 346.4C7.90003 346.4 5.20003 341.8 8.60003 337.9L42.7 304.1C42.7 304.1 47.1 298.7 52 303.5C52.1 299.9 44.6 288.9 34.3 297.3Z" fill="#AE4FCD"></path><path d="M9.30003 347.5L7.80003 347C4.40003 346 2.10003 343.3 1.10003 339.4C-0.099974 334.3 1.50003 328.6 5.10003 325.1L33.9 296.8C39 292.6 43.3 293.3 45.9 294.5C50.1 296.5 52.7 301.2 52.7 303.6V305L51.7 304C50.4 302.7 49 302.1 47.5 302.1C45 302.2 43.3 304.4 43.2 304.5L9.10003 338.4C6.00003 341.9 8.40003 346 8.50003 346.1L9.30003 347.5ZM34.7 297.7L5.90003 326C2.60003 329.2 1.10003 334.5 2.20003 339.2C2.90003 342.1 4.50003 344.2 6.70003 345.4C6.10003 343.6 5.60003 340.4 8.10003 337.6L42.2 303.8C42.2 303.7 44.3 301.2 47.3 301C48.6 300.9 49.8 301.3 51 302.1C50.2 299.9 48.1 297 45.2 295.6C42 294 38.3 294.7 34.7 297.7Z" fill="#131314"></path><path d="M57.3 354.4L9.7 347C0.599999 345.6 -2.3 334.6 3.8 327.6C3.8 327.6 4.6 335 13 336.2L60.2 343.6C60.2 343.6 66.9 345.4 68.1 338.5C70.3 341.7 70.6 355 57.3 354.4Z" fill="#00DDB0"></path><path d="M58.3 355C58 355 57.7 355 57.3 355H57.2L9.60001 347.6C5.40001 346.9 2.20001 344.3 0.700011 340.3C-0.899989 335.9 0.100011 330.9 3.30001 327.2L4.20001 326.2L4.30001 327.6C4.30001 327.9 5.10001 334.5 13 335.7L60.2 343.1C60.3 343.1 63 343.8 65.1 342.5C66.3 341.7 67.1 340.4 67.4 338.5L67.6 337.1L68.4 338.3C69.8 340.3 70.4 345.6 68.2 349.7C67 352.1 64.2 355 58.3 355ZM57.4 353.8C62.1 354 65.5 352.4 67.3 349.1C68.8 346.3 68.9 342.6 68.2 340.4C67.7 341.8 66.9 342.8 65.8 343.5C63.3 345.1 60.2 344.3 60 344.3L12.8 336.9C6.20001 335.9 4.10001 331.3 3.40001 329C1.10001 332.2 0.500011 336.3 1.80001 339.9C3.10001 343.4 6.00001 345.8 9.70001 346.4L57.4 353.8Z" fill="#111111"></path><path d="M70 340.5L56.3 302.5C53.3 294.3 43.5 291 36.3 295.8C36.3 295.8 41.6 295.5 43.7 300.3L60.2 345.5C60.2 345.5 63.3 351.7 56.9 354.3C60.2 355.9 73.3 353.5 70 340.5Z" fill="#FBE200"></path><path d="M59.4 355.3C58.3 355.3 57.3 355.1 56.6 354.8L55.3 354.2L56.6 353.7C58.3 353 59.5 352 60 350.7C60.9 348.4 59.6 345.8 59.6 345.8L43.1 300.5C41.2 296.2 36.5 296.4 36.3 296.4L34.1 296.5L36 295.3C39.6 292.9 44 292.3 48.1 293.7C52.2 295.1 55.4 298.2 56.9 302.3L70.7 340.4C72.4 346.9 70 350.5 67.7 352.4C65.1 354.5 61.9 355.3 59.4 355.3ZM58.6 354.1C60.8 354.3 64.3 353.6 66.8 351.5C69.7 349.1 70.6 345.3 69.4 340.7L55.7 302.7C54.3 299 51.4 296.1 47.7 294.9C44.6 293.9 41.2 294.1 38.3 295.4C40.2 295.8 42.9 296.9 44.3 300.1L60.8 345.4C60.8 345.5 62.3 348.4 61.2 351.2C60.7 352.3 59.8 353.3 58.6 354.1Z" fill="#131314"></path></g><g clip-path="url(#clip5_1521_740)"><path d="M265.02 275.479C264.764 289.138 247.279 299.981 225.972 299.538C204.674 299.164 187.584 287.717 187.841 274.058C188.097 260.4 205.582 249.556 226.889 249.999C248.257 250.364 265.268 261.751 265.02 275.479Z" fill="#0A0A0A"></path><path d="M187.484 274.035C187.591 267.314 191.794 261.043 199.335 256.45C206.728 251.806 216.538 249.385 226.904 249.574C232.087 249.668 237.144 250.415 241.855 251.771C256.287 255.943 265.515 265.248 265.368 275.433C265.261 282.154 261.058 288.425 253.517 293.018C246.045 297.602 236.235 300.023 225.869 299.834C220.686 299.739 215.63 298.993 210.918 297.636C196.486 293.464 187.267 284.229 187.484 274.035ZM226.926 250.277C216.629 250.079 206.959 252.481 199.687 256.968C192.415 261.455 188.324 267.5 188.189 274.013C187.996 283.851 196.979 292.905 211.184 296.966C215.826 298.332 220.813 299.087 225.996 299.182C236.223 299.389 245.894 296.987 253.235 292.491C260.506 288.004 264.598 281.959 264.733 275.446C264.925 265.608 255.942 256.554 241.738 252.493C237.026 251.136 232.039 250.381 226.926 250.277Z" fill="#0A0A0A"></path><path d="M240.477 284.357C228.223 301.571 205.034 299.752 188.672 280.373C172.31 260.995 168.967 231.29 181.222 214.075C193.485 196.93 216.665 198.68 233.027 218.059C249.389 237.437 252.732 267.142 240.477 284.357Z" fill="#0060DF"></path><path d="M188.421 280.618C171.971 261.11 168.67 231.188 180.985 213.894C188.213 203.695 199.869 199.69 212.015 203.175C219.745 205.405 227.076 210.511 233.278 217.814C249.728 237.322 253.098 267.235 240.714 284.537C233.416 294.746 221.83 298.742 209.615 295.266C201.953 293.027 194.554 287.93 188.421 280.618ZM181.537 214.316C169.403 231.374 172.718 260.87 188.923 280.128C195.047 287.37 202.289 292.347 209.88 294.596C221.738 298.048 233.125 294.149 240.171 284.185C252.305 267.127 248.99 237.631 232.785 218.373C226.652 211.061 219.41 206.084 211.818 203.836C199.961 200.384 188.583 204.352 181.537 214.316Z" fill="#0A0A0A"></path><path d="M237.848 285.903C226.132 302.906 203.561 300.934 187.537 281.441C171.514 261.947 167.972 232.339 179.678 215.267C191.464 198.255 213.965 200.236 230.058 219.72C246.082 239.214 249.624 268.822 237.848 285.903Z" fill="#1EBA8D"></path><path d="M187.286 281.685C171.115 262.14 167.605 232.246 179.442 215.086C186.28 205.15 197.379 201.218 209.01 204.559C216.74 206.789 224.079 211.965 230.318 219.545C246.421 239.099 250 268.984 238.154 286.074C231.255 296.089 220.226 300.012 208.517 296.611C200.856 294.372 193.516 289.196 187.286 281.685ZM179.994 215.508C168.338 232.432 171.862 261.901 187.798 281.265C193.949 288.715 201.209 293.831 208.722 296.019C220.065 299.327 230.895 295.501 237.542 285.731C249.197 268.807 245.673 239.338 229.738 219.974C223.656 212.515 216.405 207.468 208.813 205.22C197.479 201.982 186.719 205.798 179.994 215.508Z" fill="#0A0A0A"></path><path d="M233.715 280.87C223.665 295.465 204.318 293.775 190.577 277.087C176.835 260.399 173.78 235.034 183.89 220.36C193.94 205.765 213.217 207.464 227.028 224.143C240.77 240.831 243.764 266.275 233.715 280.87Z" fill="white"></path><path d="M190.317 277.262C176.487 260.445 173.474 234.862 183.575 220.119C189.463 211.579 198.997 208.135 209.014 211.053C215.637 212.935 221.961 217.397 227.279 223.898C241.109 240.715 244.121 266.299 234.02 281.041C228.132 289.582 218.598 293.025 208.581 290.108C201.959 288.226 195.635 283.763 190.317 277.262ZM184.127 220.541C174.198 234.978 177.165 260.215 190.828 276.842C196.058 283.214 202.295 287.546 208.778 289.446C218.498 292.262 227.702 289.003 233.478 280.689C243.407 266.251 240.44 241.015 226.777 224.388C221.547 218.016 215.31 213.684 208.827 211.784C199.107 208.968 189.903 212.227 184.127 220.541Z" fill="#0A0A0A"></path><path d="M229.581 275.836C221.198 288.023 205.076 286.615 193.607 272.664C182.138 258.713 179.64 237.58 188.023 225.393C196.407 213.206 212.459 214.623 223.998 228.565C235.467 242.517 237.965 263.649 229.581 275.836Z" fill="#ABD1C6"></path><path d="M193.347 272.839C181.799 258.828 179.265 237.418 187.708 225.152C192.647 218.007 200.556 215.131 208.949 217.556C214.473 219.159 219.704 222.848 224.17 228.26C235.718 242.272 238.252 263.682 229.809 275.948C224.87 283.092 216.961 285.969 208.568 283.544C203.054 282.01 197.813 278.252 193.347 272.839ZM188.329 225.565C180.067 237.595 182.547 258.588 193.928 272.41C198.306 277.693 203.459 281.322 208.834 282.873C216.931 285.196 224.579 282.495 229.336 275.586C237.529 263.566 235.049 242.572 223.677 228.82C219.298 223.536 214.146 219.908 208.771 218.356C200.735 215.955 193.086 218.656 188.329 225.565Z" fill="#0A0A0A"></path><path d="M225.439 270.734C218.713 280.444 205.885 279.308 196.698 268.163C187.511 257.018 185.5 240.127 192.217 230.348C198.943 220.638 211.771 221.774 220.958 232.919C230.085 244.143 232.096 261.033 225.439 270.734Z" fill="white"></path><path d="M196.386 268.486C187.12 257.281 185.143 240.103 191.92 230.246C195.909 224.497 202.271 222.247 209.042 224.18C213.457 225.435 217.673 228.41 221.297 232.804C230.563 244.009 232.541 261.186 225.763 271.044C221.774 276.793 215.412 279.043 208.642 277.11C204.218 275.786 199.932 272.82 196.386 268.486ZM192.472 230.667C185.876 240.289 187.868 257.041 196.967 268.057C200.425 272.261 204.562 275.176 208.838 276.449C215.242 278.288 221.335 276.145 225.142 270.632C231.738 261.01 229.746 244.258 220.647 233.242C217.189 229.038 213.052 226.123 208.776 224.851C202.363 222.941 196.279 225.154 192.472 230.667Z" fill="#0A0A0A"></path><path d="M221.237 265.71C216.177 273.012 206.573 272.158 199.668 263.818C192.762 255.479 191.3 242.752 196.29 235.46C201.349 228.158 210.953 229.012 217.858 237.351C224.773 245.76 226.296 258.408 221.237 265.71Z" fill="#1EBA8D"></path><path d="M199.417 264.063C192.423 255.594 190.942 242.729 196.053 235.279C199.023 230.935 203.899 229.234 208.977 230.684C212.293 231.659 215.495 233.92 218.188 237.166C225.182 245.635 226.662 258.501 221.552 265.951C218.582 270.295 213.706 271.996 208.628 270.546C205.312 269.571 202.11 267.309 199.417 264.063ZM196.605 235.701C191.666 242.845 193.18 255.424 199.928 263.643C202.543 266.829 205.587 268.97 208.824 269.885C213.614 271.302 218.142 269.647 220.931 265.538C225.869 258.393 224.355 245.815 217.607 237.596C214.992 234.41 211.948 232.269 208.711 231.354C204 229.997 199.463 231.583 196.605 235.701Z" fill="#0A0A0A"></path><path d="M217.103 260.677C213.78 265.562 207.331 264.998 202.698 259.396C198.144 253.853 197.099 245.378 200.492 240.484C203.816 235.599 210.265 236.162 214.898 241.765C219.461 247.377 220.427 255.792 217.103 260.677Z" fill="white"></path><path d="M202.447 259.64C197.805 253.968 196.733 245.285 200.186 240.312C202.207 237.364 205.457 236.23 208.912 237.187C211.189 237.805 213.307 239.362 215.149 241.52C219.791 247.192 220.863 255.875 217.409 260.848C215.389 263.797 212.139 264.93 208.684 263.973C206.406 263.355 204.298 261.868 202.447 259.64ZM200.738 240.734C197.465 245.471 198.483 253.738 202.958 259.22C204.652 261.327 206.681 262.754 208.81 263.321C211.978 264.246 214.889 263.227 216.798 260.505C220.07 255.768 219.053 247.501 214.577 242.019C212.883 239.912 210.854 238.485 208.725 237.918C205.558 236.993 202.646 238.012 200.738 240.734Z" fill="#0A0A0A"></path><path d="M212.97 255.643C211.304 258.051 208.08 257.77 205.807 255.033C203.525 252.227 203.038 247.985 204.704 245.577C206.371 243.169 209.595 243.451 211.868 246.187C214.149 248.993 214.637 253.236 212.97 255.643Z" fill="#FFC700"></path><path d="M205.477 255.218C203.117 252.352 202.602 247.901 204.32 245.345C205.39 243.793 207.085 243.216 208.847 243.69C210.025 244.03 211.119 244.803 212.049 245.952C214.409 248.818 214.924 253.268 213.207 255.824C212.136 257.377 210.441 257.953 208.679 257.479C207.501 257.14 206.407 256.366 205.477 255.218ZM204.94 245.758C203.335 248.087 203.864 252.112 206.058 254.788C206.9 255.807 207.915 256.521 208.875 256.818C210.419 257.25 211.775 256.789 212.664 255.472C214.27 253.143 213.741 249.118 211.547 246.441C210.704 245.423 209.69 244.709 208.73 244.412C207.185 243.98 205.83 244.441 204.94 245.758Z" fill="#FFC700"></path><path d="M205.92 252.124C205.999 252.184 206.138 252.166 206.198 252.087L211.597 248.976C211.797 248.879 211.839 248.662 211.742 248.463C211.645 248.264 211.427 248.222 211.227 248.319L205.838 251.499C205.638 251.596 205.596 251.813 205.693 252.012C205.772 252.073 205.85 252.133 205.92 252.124Z" fill="#0A0A0A"></path><path d="M209.746 255.362C209.816 255.353 209.894 255.413 209.955 255.334C210.164 255.307 210.276 255.08 210.178 254.881L207.456 245.497C207.429 245.289 207.201 245.178 207.002 245.275C206.793 245.302 206.681 245.529 206.778 245.728L209.501 255.112C209.588 255.241 209.667 255.302 209.746 255.362Z" fill="#0A0A0A"></path><path d="M201.159 249.856L167.71 259.412L167.247 252.13C167.207 251.288 166.698 250.649 165.956 250.394L163.128 249.354C162.613 249.21 162.201 248.77 161.998 248.303L161.379 246.831C161.079 246.165 161.615 245.388 162.408 245.496L201.159 249.856Z" fill="#F1F0F0"></path><path d="M167.528 259.647C167.45 259.587 167.362 259.457 167.353 259.388L166.89 252.107C166.878 251.473 166.447 250.894 165.854 250.69L163.025 249.65C162.432 249.446 161.95 249.015 161.659 248.418L161.04 246.947C160.837 246.479 160.922 246.044 161.224 245.652C161.466 245.337 161.935 245.135 162.362 245.149L201.174 249.43C201.313 249.412 201.48 249.602 201.498 249.741C201.516 249.879 201.395 250.037 201.265 250.124L167.816 259.68C167.746 259.689 167.677 259.698 167.607 259.707C167.607 259.707 167.538 259.717 167.528 259.647ZM162.314 245.861C162.096 245.819 161.896 245.916 161.706 246.082C161.594 246.309 161.552 246.526 161.649 246.725L162.267 248.197C162.462 248.595 162.786 248.905 163.161 249.068L165.99 250.107C166.88 250.414 167.477 251.182 167.526 252.094L168.003 258.949L199.27 250.034L162.314 245.861Z" fill="#0A0A0A"></path><path d="M191.594 252.527L169.654 259.65L169.277 253.558L191.594 252.527Z" fill="#0A0A0A"></path><path d="M169.481 259.955C169.403 259.895 169.315 259.765 169.306 259.696L168.929 253.603C168.92 253.534 168.971 253.386 169.041 253.377C169.101 253.298 169.171 253.289 169.31 253.271L191.627 252.24C191.836 252.212 191.924 252.342 192.021 252.541C192.04 252.68 191.928 252.906 191.788 252.925L169.848 260.048C169.778 260.057 169.708 260.066 169.639 260.075C169.481 259.955 169.481 259.955 169.481 259.955ZM169.671 253.859L170.017 259.179L189.037 253.004L169.671 253.859Z" fill="#0A0A0A"></path><path d="M167.873 259.037L170.681 256.691C171.002 256.437 171.401 256.243 171.81 256.119L201.159 249.856L178.391 264.148C177.411 264.771 176.121 264.658 175.236 263.857L173.449 262.116C173.125 261.805 172.94 261.477 172.815 261.069C172.363 259.788 170.991 259.05 169.626 259.442L168.34 259.894C167.862 260.027 167.492 259.37 167.873 259.037Z" fill="white"></path><path d="M174.985 264.102L173.207 262.43C172.883 262.119 172.619 261.731 172.485 261.254C172.13 260.171 170.837 259.494 169.751 259.849L168.455 260.231C168.316 260.25 168.107 260.277 167.959 260.226C167.662 260.124 167.417 259.874 167.38 259.596C167.343 259.319 167.437 258.953 167.628 258.787L170.435 256.441C170.817 256.108 171.216 255.915 171.694 255.781L201.044 249.518C201.183 249.5 201.401 249.542 201.428 249.75C201.516 249.879 201.405 250.106 201.274 250.194L178.506 264.486C177.786 264.933 176.951 265.043 176.139 264.797C175.764 264.635 175.379 264.403 174.985 264.102ZM171.855 256.466C171.507 256.512 171.177 256.696 170.857 256.95L168.118 259.287C168.118 259.287 168.058 259.366 168.067 259.435C168.076 259.505 168.155 259.565 168.155 259.565L168.225 259.556L169.52 259.173C170.068 259.031 170.634 259.027 171.219 259.162C172.1 259.399 172.836 260.149 173.163 261.024C173.279 261.361 173.464 261.69 173.709 261.94L175.487 263.612C176.214 264.293 177.365 264.424 178.215 263.889L199.283 250.668L171.855 256.466Z" fill="#0A0A0A"></path></g></g><defs><linearGradient id="paint0_linear_1521_740" x1="426.015" y1="21.5607" x2="426.01" y2="21.5526" gradientUnits="userSpaceOnUse"><stop stop-color="#4065A8"></stop><stop offset="1" stop-color="#284075"></stop></linearGradient><linearGradient id="paint1_linear_1521_740" x1="570.575" y1="67.1293" x2="568.398" y2="63.3631" gradientUnits="userSpaceOnUse"><stop stop-color="#4065A8"></stop><stop offset="1" stop-color="#284075"></stop></linearGradient><linearGradient id="paint2_linear_1521_740" x1="371.343" y1="128.75" x2="597.993" y2="128.75" gradientUnits="userSpaceOnUse"><stop stop-color="#DF3D0F"></stop><stop offset="1" stop-color="#F77307"></stop></linearGradient><linearGradient id="paint3_linear_1521_740" x1="376.9" y1="49.669" x2="375.609" y2="50.5962" gradientUnits="userSpaceOnUse"><stop stop-color="#4065A8"></stop><stop offset="1" stop-color="#284075"></stop></linearGradient><linearGradient id="paint4_linear_1521_740" x1="427.941" y1="38.7041" x2="467.155" y2="173.895" gradientUnits="userSpaceOnUse"><stop stop-color="#60BAE4"></stop><stop offset="1" stop-color="#4371B0"></stop></linearGradient><clipPath id="clip0_1521_740"><rect width="784" height="724" fill="white"></rect></clipPath><clipPath id="clip1_1521_740"><rect width="117.63" height="97.8685" fill="white" transform="translate(472.773 439.247)"></rect></clipPath><clipPath id="clip2_1521_740"><rect width="57.4036" height="150.567" fill="white" transform="translate(166.934 369.28)"></rect></clipPath><clipPath id="clip3_1521_740"><rect width="273" height="244" fill="white" transform="translate(363)"></rect></clipPath><clipPath id="clip4_1521_740"><rect width="71.1" height="91.7" fill="white" transform="translate(0 293)"></rect></clipPath><clipPath id="clip5_1521_740"><rect width="100" height="101" fill="white" transform="translate(155.838 207.956) rotate(-7.49749)"></rect></clipPath></defs></svg>